<?xml version="1.0" encoding="UTF-8"?>
<svg width="88px" height="88px" viewBox="0 0 88 88" version="1.1" xmlns="http://www.w3.org/2000/svg" xmlns:xlink="http://www.w3.org/1999/xlink">
    <title>icon_erweima</title>
    <defs>
        <linearGradient x1="50%" y1="0%" x2="50%" y2="100%" id="linearGradient-1">
            <stop stop-color="#FF9059" offset="0%"></stop>
            <stop stop-color="#FE702E" offset="99.9622692%"></stop>
        </linearGradient>
    </defs>
    <g id="页面-1" stroke="none" stroke-width="1" fill="none" fill-rule="evenodd">
        <g id="邀请有礼-改2" transform="translate(-331.000000, -1225.000000)">
            <g id="编组-17" transform="translate(30.000000, 1084.000000)">
                <g id="icon_erweima" transform="translate(301.000000, 141.000000)">
                    <circle id="椭圆形备份" fill="url(#linearGradient-1)" cx="44" cy="44" r="44"></circle>
                    <path d="M62,59.2775411 L62,61.7119455 C61.8662575,62.391313 61.4616412,62.8036652 60.8407678,63 L58.3732859,63 C58.4047691,61.7748217 58.3103685,60.4200624 58.4202898,59.2775411 L62,59.2775411 M55.1276125,63 L51.6423029,63 C51.6737862,61.7748217 51.579582,60.4200624 51.6895033,59.2735162 L55.1237815,59.2735162 L55.1237815,63 M34.0824546,52.5902302 C35.630537,52.4215295 36.907549,53.8900157 36.3064692,55.5038388 C35.4734154,57.7421047 31.4971438,56.9017426 32.2436555,54.0706437 C32.4479775,53.2893293 33.0452261,52.7041534 34.0824546,52.5902302 M62,47.6740065 L62,51.6831633 C61.8860512,53.0338978 61.9842829,54.5967228 61.9527997,56.0260894 L51.6463304,56.0260894 L51.6463304,53.6858275 C50.6797797,53.5759291 49.5009994,53.6700716 48.4518849,53.6386581 C48.3379361,56.6622632 48.4361678,59.8939342 48.4046846,62.9959751 L46.5187343,62.9959751 C44.8919683,62.6779127 45.3554746,60.2749219 45.3554746,58.3704252 L45.3554746,50.9685537 C45.3554746,49.8572987 45.1277244,48.1884528 45.4026749,47.2932151 C45.7328807,46.2251047 47.1629868,46.3861483 48.5971204,46.3861483 L55.6109124,46.3861483 L55.6109124,52.735567 L58.8525583,52.735567 C58.8840416,50.6347845 58.7898374,48.4083478 58.8997587,46.3861483 C60.4636072,46.2918585 61.9055993,46.3154187 62,47.6740065 M29.1002413,49.6295012 L29.1002413,59.8939342 L39.5009148,59.8939342 L39.5009148,49.4881892 L29.1472452,49.4881892 C29.0923828,49.4960426 29.0962139,49.5627965 29.1002413,49.6295012 M41.4380929,63 L27.1630632,63 C26.5698421,62.8194211 26.1690076,62.4501153 26,61.8532575 L26,47.4816966 C26.1414045,47.0614419 26.4675829,46.5706049 26.9665999,46.4292929 C27.9136025,46.1662042 29.4616849,46.3821234 30.5973415,46.3821234 L37.9999836,46.3821234 C39.0922709,46.3821234 40.6875536,46.1426441 41.6777291,46.4292929 C43.0176585,46.818134 42.644329,49.244685 42.644329,50.9645288 L42.644329,58.5548817 C42.644329,60.4162339 43.0491418,62.8349315 41.4380929,63 M53.1944619,33.2552762 C56.6051154,32.6270048 56.542198,37.9594582 53.1944619,37.4095735 C51.0647988,37.0562199 50.9940229,33.6596768 53.1944619,33.2552762 M33.8389873,33.2552762 C35.288838,32.9843832 36.4282765,33.9503505 36.4519013,35.2617688 C36.4833354,36.9895152 34.6954204,37.935898 33.3084871,37.2210921 C31.7169863,36.3966331 31.8231257,33.6282141 33.8389873,33.2552762 M48.4518849,30.2473778 L48.4518849,40.5118108 L58.8525583,40.5118108 L58.8525583,30.1020409 L48.4988888,30.1020409 C48.4440264,30.1098943 48.4478574,30.1766482 48.4518849,30.2473778 M46.4675065,27 L60.8839406,27 C61.4733308,27.2158701 61.8741161,27.6125646 61.9959725,28.2878582 L61.9959725,42.3257972 C61.8624265,42.9109731 61.5560419,43.4056386 60.9783413,43.5667313 C60.0391972,43.8297709 58.4753486,43.6138517 57.3516272,43.6138517 L49.952816,43.6138517 C48.8369531,43.6138517 47.1827314,43.8454777 46.2750706,43.5667313 C44.9940311,43.1740617 45.3554746,40.7081456 45.3554746,38.9842769 L45.3554746,31.6295748 C45.3554746,29.638838 44.9115164,27.2787954 46.4675065,27 M29.1002413,30.2473778 L29.1002413,40.5118108 L39.5009148,40.5118108 L39.5009148,30.1020409 L29.1472452,30.1020409 C29.0923828,30.1098943 29.0962139,30.1766482 29.1002413,30.2473778 M27.1158629,27 L41.5322971,27 C42.9979139,27.141312 42.644329,29.689836 42.644329,31.342926 L42.644329,39.2199277 C42.644329,40.9319182 42.9705073,43.0327497 41.8231611,43.5156843 C41.0766494,43.8337958 39.0648152,43.6098268 38.0982153,43.6098268 L30.4557405,43.6098268 C28.68757,43.6098268 26.275147,44.0261057 26.003831,42.5104501 L26.003831,28.0993768 C26.2002944,27.5615666 26.5462173,27.1727746 27.1158629,27" id="Fill-1" fill="#FFFFFF"></path>
                </g>
            </g>
        </g>
    </g>
</svg>