<?xml version="1.0" encoding="UTF-8"?>
<svg width="88px" height="88px" viewBox="0 0 88 88" version="1.1" xmlns="http://www.w3.org/2000/svg" xmlns:xlink="http://www.w3.org/1999/xlink">
    <title>icon_yongjin</title>
    <defs>
        <linearGradient x1="50%" y1="0%" x2="50%" y2="100%" id="linearGradient-1">
            <stop stop-color="#FF8F57" offset="0%"></stop>
            <stop stop-color="#FE712F" offset="100%"></stop>
        </linearGradient>
    </defs>
    <g id="页面-1" stroke="none" stroke-width="1" fill="none" fill-rule="evenodd">
        <g id="邀请有礼-改2" transform="translate(-571.000000, -1225.000000)">
            <g id="编组-17" transform="translate(30.000000, 1084.000000)">
                <g id="icon_yongjin" transform="translate(541.000000, 141.000000)">
                    <circle id="椭圆形备份-2" fill="url(#linearGradient-1)" cx="44" cy="44" r="44"></circle>
                    <path d="M39.5000677,25.4998961 C42.0000708,23.5000346 45.999978,23.5000346 48.5000787,25.4998961 C50.0000317,24.4997945 51.7500339,24.4997945 53.2499869,25.2500416 C55.7499411,26.749901 56.2500394,30.2499149 54.5000861,33.2499757 C53.999939,34.0000275 53.500036,34.4999318 53.0001331,34.9999826 C59.2501407,37.7500912 64,46.2500272 64,53.9999115 C64,60.7501336 59.7500436,64 51.4999847,64 L51.4999847,64 L36.5000153,64 C28.2499564,64 24,60.7501336 24,53.9999115 C24,46.2500272 28.7500546,37.7500912 34.7500131,34.9999826 C34.2501102,34.4999318 33.7500119,34.0000275 33.2500601,33.2499757 C31.5001068,30.2499149 32,26.749901 34.499964,25.2500416 C36.0001123,24.4997945 37.7501144,24.4997945 39.5000677,25.4998961 Z M46.5000763,27.4999529 C44.999928,26.2498502 42.2501199,26.2498502 40.7499716,27.4999529 L40.7499716,27.4999529 L39.5000677,28.7499578 L37.9999683,27.7499538 C37.5000165,27.4999529 36.9999182,27.249903 36.5000153,27.249903 C36.2499661,27.249903 36.0001123,27.249903 35.7500632,27.4999529 C34.7500131,28.0000037 34.4999542,29.9998651 35.500014,31.9999219 C35.7500632,32.499875 36.2499661,32.7499249 36.5000153,33.2499757 L36.5000153,33.2499757 L39.5000677,35.7500344 L36.0001123,37.2498939 C30.7499106,39.7499526 26.4999542,46.9999326 26.4999542,53.9999115 C26.4999542,57.4999254 27.7500534,61.5000389 36.5000153,61.5000389 L36.5000153,61.5000389 L51.4999847,61.5000389 C60.2499466,61.5000389 61.5000458,57.4999254 61.000094,53.750057 C61.000094,46.9999326 56.7499911,39.5000005 51.4999847,36.9998441 L51.4999847,36.9998441 L48.0000293,35.4999846 L50.7500327,32.9999258 C51.2499356,32.499875 51.4999847,32.2499717 51.7500339,31.7499209 C53.0001331,29.7500594 52.499986,27.7499538 51.4999847,27.249903 C51.0000818,26.9999509 50.0000317,26.9999509 49.2500797,27.4999529 L49.2500797,27.4999529 L47.7499313,28.4999568 Z M39.8199421,41.3778521 C40.3398893,40.8740493 41.1198355,40.8740493 41.639935,41.3778521 L41.639935,41.3778521 L44.4999746,44.1482757 L47.3599634,41.3778521 C47.8798598,40.8740493 48.6599076,40.8740493 49.1799563,41.3778521 C49.6998527,41.6295568 49.6998527,42.6370148 48.9199573,43.1408176 L48.9199573,43.1408176 L46.5798649,45.4073892 L49.6998527,45.4073892 C50.4797989,45.4073892 51,45.911192 51,46.6667486 C51,47.4222561 50.4797989,47.9258622 49.6998527,47.9258622 L49.6998527,47.9258622 L45.7998172,47.9258622 L45.7998172,50.4445811 L49.6998527,50.4445811 C50.4797989,50.4445811 51,50.9481871 51,51.7036946 C51,52.4592512 50.4797989,52.9630541 49.6998527,52.9630541 L49.6998527,52.9630541 L45.7998172,52.9630541 L45.7998172,56.7408865 C45.7998172,57.4963939 45.2799208,58 44.4999746,58 C43.7197745,58 43.1998781,57.4963939 43.1998781,56.7408865 L43.1998781,56.7408865 L43.1998781,52.9630541 L39.2998426,52.9630541 C38.5198964,52.9630541 38,52.4592512 38,51.7036946 C38,50.9481871 38.5198964,50.4445811 39.2998426,50.4445811 L39.2998426,50.4445811 L43.1998781,50.4445811 L43.1998781,47.9258622 L39.2998426,47.9258622 C38.5198964,47.9258622 38,47.4222561 38,46.6667486 C38,45.911192 38.5198964,45.4073892 39.2998426,45.4073892 L39.2998426,45.4073892 L42.1598822,45.4073892 L39.8199421,43.1408176 C39.2998426,42.6370148 39.2998426,41.6295568 39.8199421,41.3778521 Z" id="形状结合" fill="#FFFFFF"></path>
                </g>
            </g>
        </g>
    </g>
</svg>