<?xml version="1.0" encoding="UTF-8"?>
<svg width="88px" height="88px" viewBox="0 0 88 88" version="1.1" xmlns="http://www.w3.org/2000/svg" xmlns:xlink="http://www.w3.org/1999/xlink">
    <title>icon_fenxiang</title>
    <defs>
        <linearGradient x1="50%" y1="0%" x2="50%" y2="100%" id="linearGradient-1">
            <stop stop-color="#FF9560" offset="0%"></stop>
            <stop stop-color="#FE6E2B" offset="100%"></stop>
        </linearGradient>
    </defs>
    <g id="页面-1" stroke="none" stroke-width="1" fill="none" fill-rule="evenodd">
        <g id="邀请有礼-改2" transform="translate(-91.000000, -1225.000000)">
            <g id="编组-17" transform="translate(30.000000, 1084.000000)">
                <g id="icon_fenxiang" transform="translate(61.000000, 141.000000)">
                    <circle id="椭圆形" fill="url(#linearGradient-1)" cx="44" cy="44" r="44"></circle>
                    <path d="M60,26.5575664 C60,25.7008764 59.2987637,25 58.4416908,25 C58.149761,25 57.8965194,25.0780779 57.6626788,25.2141582 L22.8374436,43.5912172 C22.3310173,43.8443289 22,44.4088398 22,44.99297 C22,45.576815 22.3310173,46.1023724 22.8570729,46.3751604 L31.8944561,51.3198491 C32.1280684,51.416976 32.3813101,51.4754916 32.5955212,51.4754916 C33.1993525,51.4754916 33.725294,51.1445302 33.9979938,50.6189727 C34.3679846,49.8596948 34.0563684,48.9057638 33.2967575,48.5164577 L26.9862585,44.9540165 L52.2676844,31.5606567 L36.3740602,50.8720274 C36.1405049,51.1834836 36.0040694,51.5339503 36.0040694,51.8843599 L36.0040694,61.4427188 C36.0040694,62.2797325 36.7246498,63 37.5623786,63 C38.3997651,63 39.1204026,62.2797325 39.1204026,61.4427188 L39.1204026,52.468205 L56.0462233,31.8721129 L52.7741106,58.0748736 L43.2689893,53.5389962 C43.0744075,53.42225 42.840624,53.3831825 42.5873824,53.3831825 C41.9835511,53.3831825 41.4577237,53.7140299 41.185081,54.2592637 C41.0097291,54.6290645 40.9706986,55.0574951 41.1070771,55.4466871 C41.2435126,55.8554983 41.5160983,56.1671827 41.8861461,56.3422164 L53.3582555,61.754175 C53.5531226,61.8709212 53.7866778,61.9098176 54.0399195,61.9098176 C54.2737029,61.9098176 54.5269446,61.8515301 54.7605569,61.7347839 C55.2086086,61.5010063 55.5202248,61.072918 55.5785993,60.5860288 L60,26.7520483 L60,26.5575664 Z" id="Fill-1" fill="#FFFFFF"></path>
                </g>
            </g>
        </g>
    </g>
</svg>