<?xml version="1.0" encoding="UTF-8"?>
<svg width="113px" height="17px" viewBox="0 0 113 17" version="1.1" xmlns="http://www.w3.org/2000/svg" xmlns:xlink="http://www.w3.org/1999/xlink">
    <title>img_yuansu</title>
    <g id="页面-1" stroke="none" stroke-width="1" fill="none" fill-rule="evenodd">
        <g id="邀请有礼-改2" transform="translate(-200.000000, -1261.000000)" fill="#FF7687">
            <g id="编组-17" transform="translate(30.000000, 1084.000000)">
                <g id="编组-16" transform="translate(170.000000, 177.000000)">
                    <g id="img_yuansu" transform="translate(0.000000, 0.500000)">
                        <path d="M51.893682,0.436232732 L58.2126359,6.75518661 C58.5521859,7.09473655 58.6935145,7.55744543 58.6366218,7.99951864 C58.693729,8.44185183 58.5524437,8.90500563 58.2126359,9.24481339 L58.2126359,9.24481339 L51.893682,15.5637673 C51.3120384,16.1454109 50.3690077,16.1454109 49.7873641,15.5637673 C49.2057204,14.9821236 49.2057204,14.039093 49.7873641,13.4574493 L49.7873641,13.4574493 L55.2451314,8 L49.7873641,2.54255069 C49.2057204,1.96090705 49.2057204,1.01787638 49.7873641,0.436232732 C50.3690077,-0.145410911 51.3120384,-0.145410911 51.893682,0.436232732 Z" id="形状结合"></path>
                        <circle id="椭圆形" cx="4" cy="8.5" r="4"></circle>
                        <circle id="椭圆形备份-3" cx="22" cy="8.5" r="4"></circle>
                        <circle id="椭圆形备份-4" cx="40" cy="8.5" r="4"></circle>
                        <circle id="椭圆形备份-5" cx="73" cy="8.5" r="4"></circle>
                        <circle id="椭圆形备份-6" cx="91" cy="8.5" r="4"></circle>
                        <circle id="椭圆形备份-7" cx="109" cy="8.5" r="4"></circle>
                    </g>
                </g>
            </g>
        </g>
    </g>
</svg>