<?xml version="1.0" standalone="no"?><!DOCTYPE svg PUBLIC "-//W3C//DTD SVG 1.1//EN" "http://www.w3.org/Graphics/SVG/1.1/DTD/svg11.dtd"><svg t="1672304136580" class="icon" viewBox="0 0 1024 1024" version="1.1" xmlns="http://www.w3.org/2000/svg" p-id="48220" xmlns:xlink="http://www.w3.org/1999/xlink" width="128" height="128"><path d="M511.3856 937.8816h-0.8192a426.2912 426.2912 0 0 1-134.5536-21.9648c-2.304-0.768-4.5056-1.1776-6.5024-1.1776H208.64c-50.0224 0-90.6752-40.704-90.6752-90.6752v-143.4624c0-2.4576-0.5632-5.12-1.7408-7.8848-22.3744-54.5792-33.0752-112.2816-31.744-171.52 2.5088-110.4384 47.4112-214.4768 126.4128-292.9152C289.9456 129.792 394.2912 85.6576 504.6784 83.968c116.6336-1.6896 226.4064 42.7008 308.8384 125.2352s126.72 192.3072 124.7744 309.0432c-3.84 231.5264-195.328 419.6352-426.9056 419.6352zM505.8048 155.5968c-188.5696 2.9184-345.3952 158.6688-349.6448 347.1872-1.1264 49.3056 7.7824 97.28 26.368 142.6944 4.7104 11.4688 7.0656 23.2448 7.0656 35.1232v143.4624c0 10.496 8.5504 18.9952 18.9952 18.9952h160.8192c9.728 0 19.6096 1.6384 29.2352 4.864 36.0448 12.032 73.728 18.2272 111.9744 18.2784h0.7168c192.7168 0 352.0512-156.4672 355.2768-349.184 1.6384-97.1776-35.2256-188.5184-103.8336-257.1776-68.5568-68.7104-159.8464-105.7792-256.9728-104.2432z" fill="#434A54" p-id="48221"></path><path d="M508.4672 734.8736c-29.952 0-58.112-11.6224-79.2576-32.768l-118.9888-118.9888c-59.6992-59.6992-60.672-157.7472-2.0992-218.5216 52.5312-54.528 137.216-62.1568 199.9872-20.3776 61.0816-41.9328 145.1008-35.2768 198.656 18.2272 29.44 29.44 45.6704 68.608 45.6704 110.336s-16.2304 80.896-45.6704 110.336l-118.9376 118.9376a111.58016 111.58016 0 0 1-79.36 32.8192zM419.7376 389.1712c-22.1184 0-43.9296 8.448-60.0064 25.1904-31.6416 32.8704-31.1296 85.8624 1.1776 118.1184l118.9888 118.9376a40.12032 40.12032 0 0 0 28.5696 11.8272c10.8032 0 20.992-4.1984 28.5696-11.8272L655.9744 532.48c15.872-15.872 24.6272-37.0688 24.6272-59.648s-8.7552-43.7248-24.6272-59.648c-31.2832-31.2832-81.8688-32.9216-115.2-3.7888a49.4592 49.4592 0 0 1-32.512 12.3392c-11.5712 0-22.8352-4.1472-31.7952-11.7248a88.04864 88.04864 0 0 0-56.7296-20.8384z m102.912-33.9968z" fill="#eeb173" p-id="48222" data-spm-anchor-id="a313x.7781069.0.i17" class="selected"></path></svg>