<?xml version="1.0" standalone="no"?><!DOCTYPE svg PUBLIC "-//W3C//DTD SVG 1.1//EN" "http://www.w3.org/Graphics/SVG/1.1/DTD/svg11.dtd"><svg t="1729419420139" class="icon" viewBox="0 0 1024 1024" version="1.1" xmlns="http://www.w3.org/2000/svg" p-id="46238" xmlns:xlink="http://www.w3.org/1999/xlink" width="200" height="200"><path d="M227.601067 455.133867H170.666667a170.666667 170.666667 0 0 1-170.666667-170.666667V227.5328a170.666667 170.666667 0 0 1 170.666667-170.666667h56.9344a170.666667 170.666667 0 0 1 170.666666 170.666667v56.9344a170.9056 170.9056 0 0 1-170.666666 170.666667zM170.666667 170.734933A57.002667 57.002667 0 0 0 113.732267 227.669333v56.9344A57.002667 57.002667 0 0 0 170.666667 341.538133h56.9344a57.002667 57.002667 0 0 0 56.9344-56.9344V227.5328a57.002667 57.002667 0 0 0-56.9344-56.9344z m796.398933 28.398934h-341.333333a56.9344 56.9344 0 0 1 0-113.8688h341.333333a56.9344 56.9344 0 0 1 0 113.8688z m0 227.601066h-341.333333a56.9344 56.9344 0 0 1 0-113.8688h341.333333a56.9344 56.9344 0 0 1 0 113.8688zM227.601067 967.133867H170.666667a170.666667 170.666667 0 0 1-170.666667-170.666667v-56.9344a170.666667 170.666667 0 0 1 170.666667-170.666667h56.9344a170.666667 170.666667 0 0 1 170.666666 170.666667v56.9344a170.9056 170.9056 0 0 1-170.666666 170.666667zM170.666667 682.734933a57.002667 57.002667 0 0 0-56.9344 56.9344v56.9344A57.002667 57.002667 0 0 0 170.666667 853.538133h56.9344a57.002667 57.002667 0 0 0 56.9344-56.9344v-57.070933a57.002667 57.002667 0 0 0-56.9344-56.9344z m796.398933 28.398934h-341.333333a56.9344 56.9344 0 0 1 0-113.8688h341.333333a56.9344 56.9344 0 0 1 0 113.8688z m0 227.601066h-341.333333a56.9344 56.9344 0 0 1 0-113.8688h341.333333a56.9344 56.9344 0 0 1 0 113.8688z" fill="#1890ff" p-id="46239"></path><path d="M227.601067 455.133867H170.666667a170.666667 170.666667 0 0 1-170.666667-170.666667V227.5328a170.666667 170.666667 0 0 1 170.666667-170.666667h56.9344a170.666667 170.666667 0 0 1 170.666666 170.666667v56.9344a170.9056 170.9056 0 0 1-170.666666 170.666667zM170.666667 170.734933A57.002667 57.002667 0 0 0 113.732267 227.669333v56.9344A57.002667 57.002667 0 0 0 170.666667 341.538133h56.9344a57.002667 57.002667 0 0 0 56.9344-56.9344V227.5328a57.002667 57.002667 0 0 0-56.9344-56.9344z m796.398933 28.398934h-341.333333a56.9344 56.9344 0 0 1 0-113.8688h341.333333a56.9344 56.9344 0 0 1 0 113.8688z m0 227.601066h-341.333333a56.9344 56.9344 0 0 1 0-113.8688h341.333333a56.9344 56.9344 0 0 1 0 113.8688zM227.601067 967.133867H170.666667a170.666667 170.666667 0 0 1-170.666667-170.666667v-56.9344a170.666667 170.666667 0 0 1 170.666667-170.666667h56.9344a170.666667 170.666667 0 0 1 170.666666 170.666667v56.9344a170.9056 170.9056 0 0 1-170.666666 170.666667zM170.666667 682.734933a57.002667 57.002667 0 0 0-56.9344 56.9344v56.9344A57.002667 57.002667 0 0 0 170.666667 853.538133h56.9344a57.002667 57.002667 0 0 0 56.9344-56.9344v-57.070933a57.002667 57.002667 0 0 0-56.9344-56.9344z" fill="#1890ff" p-id="46240"></path><path d="M967.0656 711.133867h-341.333333a56.9344 56.9344 0 0 1 0-113.8688h341.333333a56.9344 56.9344 0 0 1 0 113.8688z m0 227.601066h-341.333333a56.9344 56.9344 0 0 1 0-113.8688h341.333333a56.9344 56.9344 0 0 1 0 113.8688z" fill="#1890ff" p-id="46241"></path></svg>