<?xml version="1.0" encoding="UTF-8"?>
<svg width="66px" height="66px" viewBox="0 0 66 66" version="1.1" xmlns="http://www.w3.org/2000/svg" xmlns:xlink="http://www.w3.org/1999/xlink">
    <title>icon_alipay</title>
    <g id="页面-1" stroke="none" stroke-width="1" fill="none" fill-rule="evenodd">
        <g id="订单详情-支付方式改备份" transform="translate(-43.000000, -1139.000000)">
            <g id="icon_alipay" transform="translate(43.000000, 1139.000000)">
                <rect id="矩形" fill="#408FFF" x="0" y="0" width="66" height="66" rx="18"></rect>
                <path d="M12.8298741,46.9589965 C8.53840984,45.9379234 7.10950918,38.4471797 12.4715109,36.0624804 C21.413433,33.3356354 29.2796351,36.4046261 35,39.1261749 C34.6413567,39.8051702 34.2826433,40.1473159 34.2826433,40.1473159 C25.3407912,51.049196 14.6174181,47.6432879 12.8298741,46.9589965 Z M49.7201971,23.2043976 L36.5778967,23.2043976 L36.5778967,18.3536455 L52.2083836,18.3536455 L52.2083836,16.2761626 L36.5778967,16.2761626 L36.5778967,9 L29.4750149,9 L29.4750149,16.2761626 L15.2640329,16.2761626 L15.2640329,18.3536455 L29.4750149,18.3536455 L29.4750149,23.2043976 L17.3960385,23.2043976 L17.3960385,25.2818805 L41.9105201,25.2818805 C41.9105201,25.6298772 41.9105201,25.6298772 41.5542001,25.9724872 C41.5542001,28.3976905 39.778584,31.8617735 38.35894,34.6352498 C20.2404058,27.7070839 14.9134185,31.8617735 13.4884168,32.5580431 C1.40916208,40.8728782 12.7757768,51.265127 14.5513929,50.9225171 C27.3430093,53.6959934 35.5091455,48.4972446 41.1978801,41.9114815 C41.5542001,42.2597544 41.9105201,42.2597544 42.2612041,42.2597544 C46.1688954,44.3369611 66,53 66,53 L66,42.6077511 C63.1553544,42.6077511 51.8574909,39.1435991 44.3931402,36.7181195 C48.3007619,29.7899536 49.7201971,23.2043976 49.7201971,23.2043976 Z" id="Fill-1" fill="#FFFFFF"></path>
            </g>
        </g>
    </g>
</svg>