<?xml version="1.0" encoding="UTF-8"?>
<svg width="66px" height="66px" viewBox="0 0 66 66" version="1.1" xmlns="http://www.w3.org/2000/svg" xmlns:xlink="http://www.w3.org/1999/xlink">
    <title>icon_balance</title>
    <g id="页面-1" stroke="none" stroke-width="1" fill="none" fill-rule="evenodd">
        <g id="订单详情-支付方式改备份" transform="translate(-43.000000, -1417.000000)">
            <g id="icon_balance" transform="translate(43.000000, 1417.000000)">
                <rect id="矩形" fill="#FE7F55" x="0" y="0" width="66" height="66" rx="18"></rect>
                <path d="M41.9979419,13.2501733 L41.6620042,13.6442224 C41.6545107,13.6515975 41.649392,13.6602596 41.6419513,13.6676347 L38.7997784,17 L29.204971,17 L26.3681279,13.6734259 C26.3471252,13.6542704 26.3332993,13.6310561 26.3139324,13.6103662 L26.0065963,13.2501733 L26.0607918,13.1483076 C26.0346175,13.0558464 26,12.9659591 26,12.8663702 C26,12.388819 26.3201066,11.9852664 26.7682347,11.8211329 L26.8061768,11.7501536 C26.8061768,11.7501536 30.7365328,11.0125428 34.0023483,11.0001684 C37.4200904,10.9870021 41.1985726,11.7501536 41.1985726,11.7501536 L41.2373062,11.8219248 C41.6825319,11.9873948 42,12.3903534 42,12.8661722 C42,12.9644246 41.9656463,13.0515896 41.9408441,13.1415265 L41.9979419,13.2501733 Z M38.2461906,39.4517824 L38.2461906,39.4481726 C39.2157734,39.4433023 39.9998253,38.6683977 39.9998253,37.7138051 C39.9998253,36.7580666 39.2159481,35.9840788 38.2461906,35.9780625 L38.2461906,35.9740516 L34.6896558,35.9740516 C34.6967021,35.9348595 34.6851137,35.9001366 34.6885494,35.8612309 L38.8567657,31.668587 C39.5366384,30.9149975 39.1906749,30.2918766 38.5034649,29.608535 C37.8119456,28.9216409 36.681872,28.777478 36.1231826,29.3761897 L32.5391036,33.1355425 L28.6677602,29.3260536 C28.177786,28.8444026 27.2246249,29.0012858 26.5388124,29.6763764 C25.8525341,30.35204 25.6935575,31.2905317 26.1830658,31.77224 L30.1424578,35.6669318 C30.0682687,35.760271 30.0205175,35.8636947 29.9916338,35.9740516 L26.7737834,35.9740516 L26.7737834,35.9771457 L26.764932,35.9771457 C25.7902246,35.9771457 25,36.7538265 25,37.713576 C25,38.6715491 25.7902246,39.4500062 26.764932,39.4500062 C26.7676689,39.4500062 26.7708718,39.4481726 26.7737834,39.4481726 L26.7737834,39.4517824 L30.3010268,39.4517824 L30.3010268,41.1812795 L26.7737834,41.1812795 L26.7737834,41.1863791 L26.764932,41.1863791 C25.7902246,41.1863791 25,41.9630599 25,42.9225801 C25,43.8807825 25.7902246,44.6590104 26.764932,44.6590104 C26.7676689,44.6590104 26.7708718,44.6571768 26.7737834,44.6571768 L26.7737834,44.6590104 L30.3010268,44.6590104 L30.3010268,46.4072441 L30.3376555,46.4072441 C30.3098783,46.5429269 30.2941553,46.6845687 30.2941553,46.8294192 C30.2941553,48.0284471 31.2816158,49 32.5000291,49 C33.718326,49 34.7057864,48.0282179 34.7057864,46.8294192 C34.7057864,46.6845687 34.6896558,46.5429269 34.6621115,46.4072441 L34.6828426,46.4072441 L34.6828426,44.6590104 L38.2464235,44.6571768 C39.2157734,44.6513897 40,43.8771727 40,42.9225801 C40,41.9670708 39.2157734,41.1931403 38.2464235,41.1870667 L38.2464235,41.1810504 L34.6828426,41.1810504 L34.6828426,39.4515532 L38.2464235,39.4515532 L38.2461906,39.4517824 Z M33,55 C18.2055012,55 12,50.0666429 12,39.9287703 C12,31.5300062 19.036664,22.7650793 27.5671566,20 L38.4328434,20 C46.9634539,22.7650793 54,31.5297863 54,39.9287703 C54,50.0666429 47.7944399,55 32.9997051,55 L33,55 Z" id="Fill-1" fill="#FFFFFF"></path>
            </g>
        </g>
    </g>
</svg>