<?xml version="1.0" encoding="UTF-8"?>
<svg width="66px" height="66px" viewBox="0 0 66 66" version="1.1" xmlns="http://www.w3.org/2000/svg" xmlns:xlink="http://www.w3.org/1999/xlink">
    <title>icon_wechat_play</title>
    <g id="页面-1" stroke="none" stroke-width="1" fill="none" fill-rule="evenodd">
        <g id="订单详情-支付方式改备份" transform="translate(-43.000000, -1000.000000)">
            <g id="icon_wechat_play" transform="translate(43.000000, 1000.000000)">
                <rect id="矩形" fill="#29CF42" x="0" y="0" width="66" height="66" rx="18"></rect>
                <path d="M27.3812706,38.4469327 C24.6028113,39.9651358 24.1907363,37.5948224 24.1907363,37.5948224 L20.7085352,29.6312699 C19.3685686,25.8471127 21.8682296,27.9250413 21.8682296,27.9250413 C21.8682296,27.9250413 24.0129018,29.5151415 25.6405102,30.4840495 C27.2672116,31.4529575 29.1215775,30.7684023 29.1215775,30.7684023 L51.8863837,20.4707358 C47.6864952,15.3489825 40.7482268,12 32.8936314,12 C20.0747481,12 9.68421053,20.9123807 9.68421053,31.9070407 C9.68421053,38.2312417 13.124745,43.8597321 18.483931,47.5079042 L17.5175474,52.9524967 C17.5175474,52.9524967 17.0462887,54.5421507 18.6792259,53.8048859 C19.7919815,53.3022206 22.628434,51.5007802 24.3169269,50.4046441 C26.9713498,51.3110257 29.8631879,51.8145276 32.8947652,51.8145276 C45.7125147,51.8145276 56.1052632,42.9019238 56.1052632,31.9070407 C56.1052632,28.7224898 55.2294691,25.7150877 53.6782779,23.0454174 C46.4253268,27.3221999 29.5553646,37.2612182 27.3812706,38.4469327" id="Fill-1" fill="#FFFFFF"></path>
            </g>
        </g>
    </g>
</svg>