<?xml version="1.0" encoding="UTF-8"?>
<svg width="66px" height="66px" viewBox="0 0 66 66" version="1.1" xmlns="http://www.w3.org/2000/svg" xmlns:xlink="http://www.w3.org/1999/xlink">
    <title>icon_alipay</title>
    <g id="页面-1" stroke="none" stroke-width="1" fill="none" fill-rule="evenodd">
        <g id="订单详情-支付方式改备份" transform="translate(-43.000000, -1278.000000)">
            <g id="icon_alipay" transform="translate(43.000000, 789.000000)">
                <rect id="矩形" fill="#0497FF" x="0" y="489" width="66" height="66" rx="18"></rect>
                <path d="M46.7981303,520.215669 C46.0681267,519.159574 46.0681267,517.287234 45.4657849,514.340108 C45.4702829,514.28849 45.4702829,514.236818 45.4702829,514.18734 C45.4702829,505.662941 39.6735467,499.526988 32.4006932,499.5 C25.1276203,499.529127 19.330884,505.662941 19.330884,514.18734 C19.330884,514.239177 19.330884,514.290849 19.335382,514.340108 C18.9191905,518.223404 18.9191905,519.159574 18.0030367,520.215669 C16.3966415,522.096169 13.6149475,525.733802 13.3117703,530.072468 C13.2577392,531.213867 13.4261954,532.876433 13.9588812,533.615643 C14.6081315,534.514314 16.3876455,533.433474 17.6615166,530.555402 C18.0165307,531.890106 18.832043,533.925732 20.6833607,536.507265 C17.5873542,537.248669 16.7043168,540.443632 17.7469789,542.191715 C18.4815269,543.422965 20.7017832,543.5 23.6000416,543.5 C28.7588823,543.5 30.4975386,542.987096 31.5152971,541.975975 C31.7197374,541.753542 32.0209948,541.647839 32.4006932,541.647839 C32.7825309,541.647839 33.0814296,541.753542 33.2858699,541.975975 C34.3036284,542.987096 36.2310131,543.5 41.3872756,543.5 C44.2857535,543.5 46.3196401,543.425323 47.0544075,542.191715 C48.0967953,540.443632 47.2116735,537.248669 44.1177514,536.507265 C45.9690691,533.923374 46.7869949,531.890106 47.1396504,530.555402 C48.4137409,533.433474 50.1953942,534.516673 50.8425052,533.615643 C51.3749716,532.874074 51.5433729,531.211509 51.4896161,530.072468 C51.1885782,525.733802 48.4068842,522.096169 46.7981303,520.215669 Z" id="Fill-1" fill="#FFFFFF"></path>
                <polygon id="路径-24" fill="#0497FF" points="23.4545455 521.727273 31.5454545 525.272727 60 507 31.5454545 531"></polygon>
            </g>
        </g>
    </g>
</svg>