<?xml version="1.0" encoding="UTF-8"?>
<svg width="42px" height="42px" viewBox="0 0 42 42" version="1.1" xmlns="http://www.w3.org/2000/svg" xmlns:xlink="http://www.w3.org/1999/xlink">
    <title>icon_mulu</title>
    <defs>
        <linearGradient x1="50%" y1="0%" x2="50%" y2="100%" id="linearGradient-1">
            <stop stop-color="#FE8754" offset="0%"></stop>
            <stop stop-color="#FF524B" offset="100%"></stop>
        </linearGradient>
    </defs>
    <g id="页面-1" stroke="none" stroke-width="1" fill="none" fill-rule="evenodd">
        <g id="tabbar备份-3" transform="translate(-257.000000, -353.000000)">
            <g id="tabbar备份" transform="translate(-1.000000, 330.000000)">
                <g id="分类" transform="translate(258.000000, 23.000000)">
                    <g id="分类" transform="translate(4.000000, 4.000000)">
                        <path d="M4,0 L11.1111111,0 C13.3202501,-4.05812251e-16 15.1111111,1.790861 15.1111111,4 L15.1111111,11.1111111 C15.1111111,13.3202501 13.3202501,15.1111111 11.1111111,15.1111111 L4,15.1111111 C1.790861,15.1111111 1.25159629e-15,13.3202501 0,11.1111111 L0,4 C-2.705415e-16,1.790861 1.790861,4.05812251e-16 4,0 Z M4,18.8888889 L11.1111111,18.8888889 C13.3202501,18.8888889 15.1111111,20.6797499 15.1111111,22.8888889 L15.1111111,30 C15.1111111,32.209139 13.3202501,34 11.1111111,34 L4,34 C1.790861,34 1.25159629e-15,32.209139 0,30 L0,22.8888889 C-2.705415e-16,20.6797499 1.790861,18.8888889 4,18.8888889 Z M22.8888889,18.8888889 L30,18.8888889 C32.209139,18.8888889 34,20.6797499 34,22.8888889 L34,30 C34,32.209139 32.209139,34 30,34 L22.8888889,34 C20.6797499,34 18.8888889,32.209139 18.8888889,30 L18.8888889,22.8888889 C18.8888889,20.6797499 20.6797499,18.8888889 22.8888889,18.8888889 Z" id="形状结合" fill="url(#linearGradient-1)"></path>
                        <path d="M26.4444444,1.5 C28.1166399,1.5 29.6305288,2.17779114 30.7263688,3.27363116 C31.8222089,4.36947117 32.5,5.88336006 32.5,7.55555556 C32.5,9.22775105 31.8222089,10.7416399 30.7263688,11.83748 C29.6305288,12.93332 28.1166399,13.6111111 26.4444444,13.6111111 L26.4444444,13.6111111 L22.8888889,13.6111111 C22.198533,13.6111111 21.573533,13.3312891 21.1211219,12.8788781 C20.6687109,12.426467 20.3888889,11.801467 20.3888889,11.1111111 L20.3888889,11.1111111 L20.3888889,7.55555556 C20.3888889,5.88336006 21.06668,4.36947117 22.16252,3.27363116 C23.2583601,2.17779114 24.772249,1.5 26.4444444,1.5 Z" id="矩形备份-2" stroke="#FF594D" stroke-width="3"></path>
                    </g>
                </g>
            </g>
        </g>
    </g>
</svg>