<?xml version="1.0" encoding="UTF-8"?>
<svg width="30px" height="30px" viewBox="0 0 30 30" version="1.1" xmlns="http://www.w3.org/2000/svg" xmlns:xlink="http://www.w3.org/1999/xlink">
    <title>icon_shouhou</title>
    <g id="页面-1" stroke="none" stroke-width="1" fill="none" fill-rule="evenodd">
        <g id="下单" transform="translate(-575.000000, -1094.000000)" fill="#26C87F" stroke="#26C87F" stroke-width="0.5">
            <g id="编组-7" transform="translate(575.000000, 1092.000000)">
                <g id="编组-14" transform="translate(0.000000, 2.000000)">
                    <g id="编组" transform="translate(5.000000, 4.999991)">
                        <path d="M16.8646286,2.07550901 C16.6989976,1.67973857 16.3132601,1.4223089 15.8859099,1.42219532 L4.11420317,1.42219532 C3.6867399,1.4223089 3.30103071,1.67973857 3.13537138,2.07550901 L1.7725831,5.33327503 L18.2266536,5.33327503 L16.8646286,2.07550901 Z M18.5840933,6.75558393 L1.41590669,6.75558393 L1.41590669,16.6222166 C1.41590669,17.1408525 1.62105852,17.638334 1.98613098,18.0050279 C2.35131651,18.3717218 2.84648525,18.5778132 3.36285613,18.5778132 L16.637257,18.5778132 C17.1535147,18.5778132 17.6487683,18.3717218 18.0138408,18.0050279 C18.3790263,17.638334 18.5840933,17.1408525 18.5840933,16.6222166 L18.5840933,6.75558393 Z M19.9309941,5.73779115 C19.9752642,5.8301887 20,5.93425662 20,6.04448627 L20,16.6222166 C20,18.4877441 18.4944224,20 16.637257,20 L3.36285613,20 C1.5055493,20 0,18.4877441 0,16.6222166 L0,6.04448627 C0,5.93067884 0.0265168006,5.82220968 0.0743205423,5.727143 L0.0813879199,5.70752201 L1.83008328,1.52535459 C2.21627306,0.601407515 3.11648734,0.000227160534 4.11420317,0 L15.8859099,0 C16.8835127,0.000227160534 17.7837269,0.601407515 18.1700015,1.52535459 L19.9186121,5.70752201 L19.9309941,5.73779115 Z" id="Fill-1"></path>
                        <path d="M9.44775229,9.9420724 C9.58338854,9.80405161 9.63748982,9.59920707 9.58920655,9.40702319 C9.54084046,9.2148393 9.3976263,9.06536052 9.21499047,9.01668588 C9.03237535,8.96798939 8.83915943,9.02770656 8.7102315,9.17265899 L7.14752636,10.8435589 C6.98197188,11.0202833 6.93319169,11.2848012 7.02385741,11.5141799 C7.11460595,11.7435804 7.32691156,11.8929717 7.56234428,11.8928843 L10.6481465,11.8928843 C11.4356484,11.8928843 12.0740974,12.5671569 12.0740974,13.3988459 C12.0740974,14.2305348 11.4356484,14.90472 10.6481465,14.90472 L7.4074527,14.90472 C7.22216667,14.90472 7.05104263,15.0091102 6.95834786,15.1785749 C6.8657359,15.3480396 6.8657359,15.5567982 6.95834786,15.7261755 C7.05104263,15.8956401 7.22216667,16.0000085 7.4074527,16.0000085 L10.6481465,16.0000085 C12.0084222,16.0000085 13.1111111,14.8353597 13.1111111,13.3988459 C13.1111111,11.9622445 12.0084222,10.7976832 10.6481465,10.7976832 L8.64797257,10.7976832 L9.44775229,9.9420724 Z" id="Fill-3"></path>
                    </g>
                </g>
            </g>
        </g>
    </g>
</svg>