<?xml version="1.0" encoding="UTF-8"?>
<svg width="90px" height="90px" viewBox="0 0 90 90" version="1.1" xmlns="http://www.w3.org/2000/svg" xmlns:xlink="http://www.w3.org/1999/xlink">
    <title>icon_ticheng</title>
    <g id="页面-1" stroke="none" stroke-width="1" fill="none" fill-rule="evenodd">
        <g id="开通分销" transform="translate(-240.000000, -768.000000)">
            <g id="2" transform="translate(39.000000, 768.000000)">
                <g id="专属社区平台备份" transform="translate(180.000000, 0.000000)">
                    <g id="icon_ticheng" transform="translate(21.000000, 0.000000)">
                        <circle id="椭圆形备份-6" fill="#FFF4EE" cx="45" cy="45" r="45"></circle>
                        <path d="M60.7227663,38.5903324 C62.1012431,41.9828966 62.2966694,45.5165634 61.5115269,48.82594 C61.4597512,49.0107616 61.3726162,49.1877064 61.2504897,49.3446376 C60.9257139,49.7617966 60.4031147,49.9740607 59.8792944,49.9014976 C59.355655,49.8288892 58.9104394,49.4823945 58.7115306,48.9926725 C58.5836798,48.6783004 58.5698442,48.3354396 58.6622982,48.0198604 L58.6604557,48.0376014 C59.2646898,45.3501881 59.0802536,42.4602762 57.9658126,39.7151289 C55.0530968,32.550095 46.8832731,29.0996159 39.7157725,32.0112741 C32.5481814,34.9227967 29.096449,43.0896541 32.0090291,50.2546879 C34.1763384,55.5841407 39.2544578,58.8556036 44.6625807,58.9853407 L44.9874435,58.9893462 L44.987,59 L56.907,59 L53.5985796,55.6907252 C53.0198084,55.1120285 53.0198084,54.1753084 53.5985796,53.5965665 L53.6022883,53.59304 C54.1812404,53.0142981 55.1183007,53.0142981 55.6972076,53.59304 L61.5657859,59.4594875 C62.144738,60.0381842 62.144738,60.9786116 61.5657859,61.5573535 C61.2006884,61.9223185 60.6962845,62.0585239 60.2280882,61.9668383 L44.3505373,61.9660264 C44.2489978,61.9660264 44.1498024,61.9558185 44.0539348,61.9363657 C37.6994731,61.584587 31.8049221,57.6555497 29.2519397,51.3722507 C25.7242258,42.6845664 29.9068282,32.7816189 38.5941404,29.2514786 C47.2849802,25.7250455 57.1914794,29.9061744 60.7227663,38.5903324 Z" fill="#303133"></path>
                        <path d="M50.659044,35.7234996 C51.2112487,36.3087217 51.2112487,37.2560043 50.659044,37.8412721 L46.9853059,41.732535 L49.5715067,41.7330221 C50.351765,41.7330221 50.9835403,42.4024156 50.9835403,43.2326995 C50.9835403,44.0592343 50.351765,44.732194 49.5681409,44.732194 L46.3813059,44.731535 L46.3813059,46.827535 L49.5681409,46.8279979 C50.351765,46.8279979 50.9835403,47.5011405 50.9835403,48.3276753 C50.9835403,49.154393 50.351765,49.8273527 49.5681409,49.8273527 L46.3813059,49.826535 L46.3818891,51.9963779 C46.3818891,52.8229127 45.746748,53.4958724 44.9664897,53.4958724 C44.186404,53.4958724 43.5510903,52.8266618 43.5510903,51.9963779 L43.5503059,49.826535 L40.3614641,49.8273527 C39.5812058,49.8273527 38.9461078,49.1580049 38.9461078,48.3276753 C38.9461078,47.5011405 39.57784,46.8279979 40.3614641,46.8279979 L43.5503059,46.827535 L43.5503059,44.731535 L40.3647867,44.732194 C39.5847441,44.732194 38.9494736,44.0628005 38.9494736,43.2326995 C38.9494736,42.4059818 39.5812058,41.7330221 40.3647867,41.7330221 L43.0223059,41.732535 L39.3465889,37.8412584 C38.7942116,37.2559906 38.7942116,36.308708 39.3465889,35.7234859 C39.8987936,35.138218 40.7929708,35.138218 41.3453481,35.7234859 L45.0023059,39.598535 L48.6603279,35.7234996 C49.2125326,35.1382317 50.1067098,35.1382317 50.659044,35.7234996 Z" id="形状结合" fill="#FF6F26"></path>
                    </g>
                </g>
            </g>
        </g>
    </g>
</svg>