<?xml version="1.0" encoding="UTF-8"?>
<svg width="90px" height="90px" viewBox="0 0 90 90" version="1.1" xmlns="http://www.w3.org/2000/svg" xmlns:xlink="http://www.w3.org/1999/xlink">
    <title>icon_huoyuan</title>
    <g id="页面-1" stroke="none" stroke-width="1" fill="none" fill-rule="evenodd">
        <g id="开通分销" transform="translate(-240.000000, -964.000000)">
            <g id="2备份" transform="translate(39.000000, 964.000000)">
                <g id="专属社区平台备份" transform="translate(180.000000, 0.000000)">
                    <g id="icon_huoyuan" transform="translate(21.000000, 0.000000)">
                        <circle id="椭圆形备份-6" fill="#FFF4EE" cx="45" cy="45" r="45"></circle>
                        <path d="M47,60 L47,45.33871 L61,38 L61,53.1373972 L47,60 Z M30,38 L35.5860455,40.7917457 L35.5860455,47.022338 C35.5860455,47.6768913 36.1083601,48.2073475 36.7526742,48.2073475 C37.397125,48.2073475 37.9194396,47.6768913 37.9194396,47.022338 L37.9194396,41.9591196 L44,44.9960045 L44,60 L30,52.9104482 L30,38 Z M46.0858844,29 L51,31.5969651 L37.3537741,39 L32,36.3299456 L46.0858844,29 Z M45.8606127,43 L40,40.1137893 L53.2757195,33 L59,35.9880157 L45.8606127,43 Z M62.0597396,35.3749045 L46.3073242,27.1974293 C45.8037435,26.9358786 45.203776,26.9340641 44.6985547,27.1928025 L28.9507878,35.2435848 C28.3671354,35.5416511 28,36.1396434 28,36.792613 L28,53.4424998 C28,54.1032715 28.3756576,54.7071154 28.9694727,55.001961 L44.7195638,62.817139 C45.2111133,63.0609537 45.7889323,63.0609537 46.2804362,62.817139 L62.0305273,55.001961 C62.624388,54.7075236 63,54.1041334 63,53.4437699 L63,36.9203492 C63,36.2700558 62.637194,35.6756017 62.0597396,35.3749045 L62.0597396,35.3749045 Z" stroke="#303133" stroke-width="0.5" fill="#303133"></path>
                        <rect id="矩形" fill="#FF6F26" x="35" y="39" width="3" height="10" rx="1.5"></rect>
                    </g>
                </g>
            </g>
        </g>
    </g>
</svg>