<?xml version="1.0" encoding="UTF-8"?>
<svg width="90px" height="90px" viewBox="0 0 90 90" version="1.1" xmlns="http://www.w3.org/2000/svg" xmlns:xlink="http://www.w3.org/1999/xlink">
    <title>icon_zhuanqu</title>
    <g id="页面-1" stroke="none" stroke-width="1" fill="none" fill-rule="evenodd">
        <g id="开通分销" transform="translate(-600.000000, -572.000000)">
            <g id="1" transform="translate(39.000000, 572.000000)">
                <g id="赚取二级返利" transform="translate(540.000000, 0.000000)">
                    <g id="icon_zhuanqu" transform="translate(21.000000, 0.000000)">
                        <circle id="椭圆形备份-8" fill="#FFF4EE" cx="45" cy="45" r="45"></circle>
                        <g transform="translate(26.000000, 28.000000)">
                            <path d="M17.0001154,0 C19.2946183,0 21.5209311,0.449399205 23.6176041,1.33670179 C25.6419781,2.19279481 27.4600273,3.41823174 29.0209209,4.97912528 C30.5815836,6.53997265 31.8072052,8.35783722 32.6636676,10.3825805 C33.3471811,11.9988568 33.7709549,13.6920483 33.9293014,15.4340338 L34.8424784,14.4135489 C35.3359122,13.8621504 36.1363598,13.8621504 36.6297935,14.4135489 C37.1234022,14.9653383 37.1234022,15.8597675 36.6297935,16.4109707 L32.8938324,20.5861946 C32.6469625,20.8621137 32.3230332,21 31.9996722,21 C31.6763111,21 31.3527315,20.8621137 31.1058616,20.5861946 L27.3700753,16.4109707 C26.8766416,15.8597675 26.8766416,14.9653383 27.3700753,14.4135489 C27.8633343,13.8621504 28.6640878,13.8621504 29.1575653,14.4135489 L31.327,16.837 L31.3243384,16.6049776 C31.2254142,12.9251651 29.7459509,9.4803864 27.132327,6.86711902 C24.4257286,4.16070534 20.8273494,2.66998714 16.9997461,2.66998714 C13.1719581,2.66998714 9.57334803,4.16070534 6.86674968,6.86711902 C4.16070534,9.57371738 2.66998714,13.1722813 2.66998714,17.0001154 C2.66998714,20.8277187 4.16070534,24.4260979 6.86711902,27.1326963 C9.57371738,29.8392947 13.1722813,31.3300129 17.0001154,31.3300129 C19.5663631,31.3300129 22.0834419,30.6441874 24.2794684,29.3462667 C26.4133067,28.0853266 28.1941907,26.2832976 29.4301078,24.1359783 C29.7974665,23.4969672 30.6139012,23.276792 31.2531893,23.6447047 C31.8921543,24.0122019 32.1121909,24.8288675 31.7444629,25.4677863 C30.2791833,28.0140894 28.1676903,30.1502361 25.6380077,31.6451094 C23.030809,33.1855967 20.0439248,34 17.0001154,34 C14.705751,34 12.4794383,33.5504623 10.3825805,32.6637137 C8.35783722,31.8072052 6.53997265,30.5815836 4.97912528,29.0209209 C3.41823174,27.4600735 2.19279481,25.6419781 1.33633244,23.6176503 C0.449399205,21.5209772 0,19.2941105 0,17.0001154 C0,14.705751 0.449399205,12.4794383 1.33670179,10.3825805 C2.19279481,8.35783722 3.41823174,6.53997265 4.97912528,4.97912528 C6.53997265,3.41823174 8.35783722,2.19279481 10.3825805,1.33670179 C12.4794383,0.449399205 14.705751,0 17.0001154,0 Z" stroke="#303133" stroke-width="0.5" fill="#303133"></path>
                            <path d="M19.3386006,16.4545455 C19.1421597,16.4545455 18.9497083,16.3976069 18.7811036,16.2898513 C18.2624142,15.9594427 18.0919961,15.2409584 18.4001904,14.6850792 L22.2461356,7.75451563 C22.5544659,7.19868498 23.224759,7.01611252 23.7434484,7.34652107 C24.2620018,7.67668671 24.4325106,8.39536539 24.1242256,8.95085597 L20.2789604,15.8821968 C20.0747669,16.2501595 19.7113987,16.4545455 19.3386006,16.4545455 M15.4951488,16.4545455 C15.1227134,16.4545455 14.7593452,16.2501595 14.5551518,15.8821968 L10.7092065,8.95085597 C10.4008309,8.39502532 10.571249,7.67668671 11.0895304,7.34652107 C11.6083105,7.01611252 12.2787395,7.19829633 12.5871151,7.75451563 L16.4326977,14.6850792 C16.7409827,15.2409584 16.5704286,15.9594427 16.0518752,16.2898513 C15.8834972,16.3976069 15.6911818,16.4545455 15.4951488,16.4545455" id="Fill-5" fill="#FF6F26"></path>
                            <path d="M21.9225851,22.6363636 L11.8551922,22.6363636 C11.2178148,22.6363636 10.700736,22.112321 10.700736,21.4655515 C10.700736,20.8191221 11.2178148,20.2947393 11.8551922,20.2947393 L21.9229684,20.2947393 C22.5603938,20.2947393 23.0772809,20.8191221 23.0772809,21.4655515 C23.0772809,22.112321 22.5603938,22.6363636 21.9225851,22.6363636 M23.1232732,17.7656724 L10.6545041,17.7656724 C10.0166955,17.7656724 9.5,17.2416297 9.5,16.5950546 C9.5,15.9482365 10.0166955,15.4242424 10.6545041,15.4242424 L23.1232732,15.4242424 C23.7606986,15.4242424 24.2777776,15.9482365 24.2777776,16.5950546 C24.2781606,17.2416297 23.7610819,17.7656724 23.1232732,17.7656724" id="Fill-7" fill="#FF6F26"></path>
                            <path d="M16.8888232,27.7878788 C16.3056184,27.7878788 15.8333333,27.309669 15.8333333,26.719247 L15.8333333,17.5233546 C15.8333333,16.9328883 16.3056184,16.4545455 16.8888232,16.4545455 C17.4716337,16.4545455 17.9444444,16.9332432 17.9444444,17.5233546 L17.9444444,26.7196019 C17.9444444,27.309669 17.4716337,27.7878788 16.8888232,27.7878788" id="Fill-9" stroke="#FF6F26" stroke-width="0.5" fill="#FF6F26"></path>
                        </g>
                    </g>
                </g>
            </g>
        </g>
    </g>
</svg>