<?xml version="1.0" encoding="UTF-8"?>
<svg width="90px" height="90px" viewBox="0 0 90 90" version="1.1" xmlns="http://www.w3.org/2000/svg" xmlns:xlink="http://www.w3.org/1999/xlink">
    <title>icon_community</title>
    <g id="页面-1" stroke="none" stroke-width="1" fill="none" fill-rule="evenodd">
        <g id="开通分销" transform="translate(-240.000000, -572.000000)">
            <g id="1" transform="translate(39.000000, 572.000000)">
                <g id="专属社区平台" transform="translate(180.000000, 0.000000)">
                    <g id="icon_community" transform="translate(21.000000, 0.000000)">
                        <circle id="椭圆形备份-6" fill="#FFF4EE" cx="45" cy="45" r="45"></circle>
                        <path d="M30.3698946,63 L30.3698946,55.4869924 C28.1219994,51.1048956 27,47.6098963 27,45 C27,35.0589316 35.0589316,27 45,27 C54.9409292,27 63,35.0589316 63,45 C63,54.9407901 54.9409292,63 45,63 L30.3698946,63 Z M33.3699951,59.9998995 L45,59.9998995 C53.2839995,59.9998995 59.9998995,53.2839995 59.9998995,45 C59.9998995,36.7160005 53.2839995,29.999915 45,29.999915 C36.7160005,29.999915 29.999915,36.7160005 29.999915,45 C29.999915,47.0390163 30.9899908,50.1219169 33.0389802,54.1198398 L33.3689282,54.7640107 L33.3689282,59.9998995 L33.3699951,59.9998995 Z" id="icon_yonghu" stroke="#303133" stroke-width="0.5" fill="#303133"></path>
                        <path d="M43.5358994,39.4640362 L44.5959262,40.5249444 L44.5969931,40.5249444 L45.65702,39.4649639 C47.6188489,37.5701636 50.7374209,37.5971606 52.6661762,39.5258232 C54.5947923,41.4544857 54.6217893,44.573104 52.726989,46.5348866 L44.5969931,54.6668771 L36.4639357,46.5359999 C35.2006427,45.2727069 34.7072283,43.4313439 35.1696565,41.7056228 C35.6320846,39.9800873 36.9799868,38.6321387 38.7057543,38.169757 C40.4314754,37.7073288 42.2726064,38.2007432 43.5358994,39.4640362 Z M47.777955,41.5860381 L44.5959262,44.7678814 L41.4138974,41.5860381 C40.6291287,40.8280809 39.3817927,40.8387962 38.6104298,41.6103447 C37.8388813,42.3818469 37.8280268,43.6292292 38.585984,44.4139979 L44.5959262,50.4238937 L50.6059612,44.4139979 L50.6069817,44.4139979 C51.1122247,43.9086158 51.3093678,43.1720428 51.1242852,42.4819028 C50.9391098,41.7919019 50.400051,41.2527967 49.7096791,41.0679925 C49.0194927,40.8831882 48.2831052,41.0807024 47.777955,41.5860381 Z" id="形状结合" stroke="#FF6F26" stroke-width="0.5" fill="#FF6F26"></path>
                    </g>
                </g>
            </g>
        </g>
    </g>
</svg>