<?xml version="1.0" encoding="UTF-8"?>
<svg width="90px" height="90px" viewBox="0 0 90 90" version="1.1" xmlns="http://www.w3.org/2000/svg" xmlns:xlink="http://www.w3.org/1999/xlink">
    <title>icon_shangpin</title>
    <g id="页面-1" stroke="none" stroke-width="1" fill="none" fill-rule="evenodd">
        <g id="开通分销" transform="translate(-420.000000, -1160.000000)">
            <g id="2备份-2" transform="translate(39.000000, 1160.000000)">
                <g id="站点用户管理备份" transform="translate(360.000000, 0.000000)">
                    <g id="icon_shangpin" transform="translate(21.000000, 0.000000)">
                        <circle id="椭圆形备份-7" fill="#FFF4EE" cx="45" cy="45" r="45"></circle>
                        <g id="编组-11" transform="translate(29.000000, 29.000000)">
                            <path d="M6.6087064,3.46179979 C5.86564237,3.46179979 5.24015116,4.05434398 5.17944548,4.80550337 L3.39381712,26.9543715 C3.35974422,27.3688427 3.49248162,27.763856 3.76923506,28.0657428 C4.04210258,28.3716954 4.41752051,28.538297 4.82696396,28.538297 L26.1901023,28.538297 C26.5957072,28.538297 26.9711725,28.3716954 27.2439453,28.0657428 C27.5206987,27.759887 27.6534361,27.3648737 27.6193632,26.9505961 L25.8338296,4.80153436 C25.7730292,4.04659957 25.143652,3.45797599 24.4044739,3.45797599 L6.6087064,3.45797599 L6.6087064,3.46179979 Z M26.1862164,32 L4.82307804,32 C3.48101341,32 2.18448988,31.4191692 1.27461556,30.4123475 C0.36478862,29.4055742 -0.0938922961,28.0387342 0.0160508516,26.6717489 L1.80167922,4.5228324 C2.00640094,1.98644123 4.11427646,0 6.6087064,0 L24.3968916,0 C26.8876252,0 28.9992445,1.98644123 29.2039662,4.51886339 L30.9895946,26.6679251 C31.0995377,28.0347651 30.6408094,29.3977813 29.7309825,30.4083785 C28.8211555,31.4191692 27.528281,32 26.1862164,32 L26.1862164,32 Z" id="Fill-1" fill="#303133"></path>
                            <path d="M15.5055497,16 C11.5520205,16 8.07135984,12.7232743 7.04259871,8.0309094 C6.84550859,7.12470749 7.45643868,6.24097456 8.40646231,6.05373309 C9.36032919,5.86284042 10.2905453,6.44684656 10.4876354,7.34944407 C11.1736075,10.4725382 13.2351701,12.6558205 15.5017065,12.6558205 C17.7761264,12.6558205 19.8415323,10.468887 20.5196208,7.33441794 C20.7167109,6.42821604 21.646927,5.8478611 22.6007939,6.03510257 C23.5548578,6.22234404 24.1657879,7.10603016 23.9686978,8.01227887 C22.9516635,12.7119462 19.4710028,16 15.5055497,16" id="Fill-3" fill="#FF6F26"></path>
                        </g>
                    </g>
                </g>
            </g>
        </g>
    </g>
</svg>