<?xml version="1.0" encoding="UTF-8"?>
<svg width="90px" height="90px" viewBox="0 0 90 90" version="1.1" xmlns="http://www.w3.org/2000/svg" xmlns:xlink="http://www.w3.org/1999/xlink">
    <title>icon_user</title>
    <g id="页面-1" stroke="none" stroke-width="1" fill="none" fill-rule="evenodd">
        <g id="开通分销" transform="translate(-420.000000, -572.000000)">
            <g id="1" transform="translate(39.000000, 572.000000)">
                <g id="站点用户管理" transform="translate(360.000000, 0.000000)">
                    <g id="icon_user" transform="translate(21.000000, 0.000000)">
                        <circle id="椭圆形备份-7" fill="#FFF4EE" cx="45" cy="45" r="45"></circle>
                        <path d="M40.2730861,31.9322133 C36.743438,31.9322133 33.8822929,34.7763772 33.8822929,38.2851831 C33.8822929,41.7939413 36.743438,44.638153 40.2730861,44.638153 C43.8027822,44.638153 46.6639273,41.7939413 46.6639273,38.2851831 C46.6639273,34.7763772 43.8027822,31.9322133 40.2730861,31.9322133 L40.2730861,31.9322133 Z M40.7646339,48.547548 C35.329092,48.547548 30.8304625,52.5337298 30.0646004,57.7251152 L30.0494301,57.8324925 L51.4794536,57.8324925 L51.4648113,57.7251152 C50.7077826,52.5904251 46.298591,48.635502 40.9437015,48.5490274 L40.7646339,48.547548 Z M40.2730861,29 C45.4314813,29 49.6133579,33.1573652 49.6133579,38.2851831 C49.6133579,41.6897614 47.7699698,44.6668346 45.02097,46.2829356 C50.5395647,48.0637772 54.5294118,53.2184634 54.5294118,59.2986947 C54.5294118,60.10832 53.869166,60.7647059 53.0545284,60.7647059 L28.4747393,60.7647059 C27.6602938,60.7647059 27,60.10832 27,59.2986947 C27,53.442715 30.7006985,48.4459452 35.9038846,46.4932043 C32.9469167,44.9350872 30.9328623,41.8442894 30.9328623,38.2851831 C30.9328623,33.1573652 35.1147389,29 40.2730861,29 L40.2730861,29 Z" id="Fill-1" fill="#303133"></path>
                        <path d="M53.1039699,29.0232185 C57.320429,29.7645827 60.522036,33.4721588 60.522036,37.7003937 C60.522036,40.7283427 58.9688074,43.4519015 56.5657147,45.0377138 C60.8237958,47.3470016 63,51.4625711 63,57.1971342 C63,57.9978755 62.3343375,58.6470588 61.51327,58.6470588 C60.6920088,58.6470588 60.0263463,57.9978755 60.0263463,57.1971342 C60.0263463,51.3803494 57.5533673,47.9351559 52.4318705,46.5084534 C51.7628202,46.3220622 51.3155284,45.7080897 51.3554081,45.0303506 C51.3132537,44.2869569 51.8550663,43.6331479 52.6093934,43.5175561 C55.4333045,43.0850189 57.5484307,40.6109101 57.5484307,37.7003937 C57.5484307,34.8802174 55.3817125,32.3707088 52.5766765,31.8773313 C51.7684828,31.7351661 51.2314131,30.9812469 51.3771387,30.1930607 C51.5227191,29.4050633 52.2957761,28.8812421 53.1039699,29.0232185" id="Fill-3" fill="#FF6F26"></path>
                    </g>
                </g>
            </g>
        </g>
    </g>
</svg>