<?xml version="1.0" encoding="UTF-8"?>
<svg width="90px" height="90px" viewBox="0 0 90 90" version="1.1" xmlns="http://www.w3.org/2000/svg" xmlns:xlink="http://www.w3.org/1999/xlink">
    <title>icon_chajia</title>
    <g id="页面-1" stroke="none" stroke-width="1" fill="none" fill-rule="evenodd">
        <g id="开通分销" transform="translate(-60.000000, -768.000000)">
            <g id="2" transform="translate(39.000000, 768.000000)">
                <g id="icon_chajia" transform="translate(21.000000, 0.000000)">
                    <circle id="椭圆形" fill="#FFF4EE" cx="45" cy="45" r="45"></circle>
                    <g id="编组-4" transform="translate(29.000000, 29.000000)">
                        <path d="M20.1191231,1.32402821 C20.783793,1.0846211 21.4645161,0.891252024 22.1561307,0.745043851 C23.045309,0.562669625 23.8374102,0.504747795 24.5110775,0.575114864 C25.5153276,0.678700431 26.2828517,1.05940312 26.7915827,1.70547949 C27.3004085,2.35150907 27.5072062,3.00689598 27.4049202,3.64946335 C27.2277191,4.76013081 26.2369651,5.42553005 25.1882963,6.12990254 C24.4393352,6.63304581 23.6646131,7.15373405 23.1346672,7.83854973 C22.929148,8.10280054 22.8490713,8.4420035 22.9150837,8.76876122 C22.9811435,9.09556572 23.1868521,9.37829724 23.4794564,9.54424936 C24.9359908,10.3657288 32.2014254,14.9276109 31.9957168,23.9972898 C31.9577857,25.681608 31.6585043,27.143175 31.1069173,28.3389474 C30.6340811,29.3627321 29.9779825,30.1953935 29.1513123,30.8175151 C27.7193551,31.8970694 26.2449207,31.9954149 25.8270632,32 L7.153041,32 C4.67284119,32 2.81118782,31.1528815 1.62197048,29.4817104 C0.529877538,27.9492616 0.197637311,25.996669 0.0309489419,24.4662321 C0.0309489419,24.4505118 0.027823535,24.4351658 0.0270658606,24.4194455 C-0.494545613,16.2624798 6.66969208,11.0848858 8.87684498,9.69209507 C9.16154114,9.51262161 9.35370631,9.22020527 9.40423372,8.89031284 C9.45452436,8.56023327 9.35815764,8.22486682 9.13971064,7.97030084 C8.78843385,7.56091796 8.12362191,7.15410834 7.48045105,6.7606329 C6.75606696,6.3174233 6.0074373,5.85942912 5.49079806,5.27768435 C4.74628825,4.43917463 4.60531345,3.44626908 5.09330313,2.48166944 C5.55368504,1.57223121 6.34801194,0.947208815 7.39052457,0.675425367 C8.1347029,0.481167341 9.01393669,0.462686628 10.0046907,0.620030015 C10.9612073,0.772273661 11.8400149,1.05977741 12.3970003,1.26867965 C13.5461082,0.496887644 14.8914538,0.0591520716 16.2800816,0.00544103732 C17.6833419,-0.0566915877 19.0573845,0.415198214 20.1191231,1.32402821 Z M11.1552413,10.2439559 L11.1148605,10.3237635 C10.8527902,10.7805236 10.4798675,11.1731454 10.0220698,11.4621263 C8.0634815,12.6975737 1.71407528,17.2682517 2.14452905,24.2648157 C2.28493559,25.5396106 2.5513055,27.140555 3.35671339,28.2724168 C4.14805695,29.382476 5.35394312,29.8998892 7.151573,29.8998892 L25.8107732,29.8998892 C25.9434136,29.8975031 26.9219501,29.8575005 27.8633132,29.1478411 C29.1396631,28.1855808 29.815556,26.4367439 29.8712451,23.9501289 C30.0495353,16.0714968 23.6996082,12.0849497 22.4247263,11.3674302 C21.9636252,11.106342 21.5788036,10.7423296 21.2963979,10.311162 C20.4359785,10.5945987 18.8003316,11 16.469028,11 C13.9077542,11 12.0144911,10.5153657 11.1552413,10.2439559 Z M16.3644202,2.10405466 C14.4643149,2.17900682 13.3057834,3.22089796 13.2959809,3.23151852 C12.9795098,3.52959604 12.5106041,3.60599859 12.1139615,3.42413901 C12.1036382,3.41941356 10.925123,2.88904049 9.6321043,2.68944879 C8.23774662,2.47413679 7.35079402,2.7208894 6.9957762,3.42194004 C6.87795783,3.65517132 6.94472789,3.72951525 7.09015402,3.89345555 C7.32911611,4.16284768 7.75239068,4.44913671 8.20695375,4.73332503 L8.60067266,4.97595747 L8.60067266,4.97595747 C9.38406064,5.45552027 10.1944408,5.94916585 10.7634542,6.61423759 C11.1313463,7.04383183 11.3760915,7.55486942 11.4826754,8.09531458 C11.861957,8.23233126 13.7363165,8.85330777 16.469028,8.85330777 C18.7017731,8.85330777 20.1725442,8.43854632 20.7869284,8.22253438 C20.8431976,7.62476281 21.0698447,7.04833359 21.447279,6.56160264 C22.1861062,5.60738963 23.1899775,4.93413023 23.9939174,4.39332375 C24.3871504,4.12902616 24.7584108,3.87941957 25.0168252,3.65334664 C25.2439854,3.45230455 25.2959808,3.34736218 25.3046467,3.32509175 C25.3005742,3.30225988 25.2735821,3.19699 25.1152281,2.99519932 C24.8163256,2.61487093 23.8829181,2.54048021 22.6187857,2.79579477 C21.3923476,3.04343632 20.2941459,3.50985209 20.283207,3.51443718 C19.8285076,3.70944379 19.3091218,3.58513176 19.0162806,3.18945735 C18.9406079,3.09738129 18.031446,2.03972307 16.3644202,2.10405466 Z" id="icon_chaji" stroke="#303133" stroke-width="0.5" fill="#303133"></path>
                        <path d="M18.8820402,23 L13.1180788,23 C12.5890055,22.9893144 12.1653922,22.5256079 12.1653922,21.957183 C12.1653922,21.3889903 12.5890055,20.9252838 13.1180788,20.9145982 L18.8820402,20.9145982 C19.411027,20.9252838 19.8346403,21.3889903 19.8346403,21.957183 C19.8346403,22.5256079 19.411027,22.9893144 18.8820402,23 M19.0107723,20.085771 L12.9892602,20.085771 C12.6381884,20.0928328 12.3106483,19.895754 12.1330794,19.5701699 C11.9556402,19.2446322 11.9556402,18.8413687 12.1330794,18.5157846 C12.3106483,18.1903863 12.6381884,17.9931217 12.9892602,18.0001834 L19.0107723,18.0001834 C19.3618873,17.9931217 19.6893841,18.1903863 19.8669531,18.5157846 C20.044349,18.8413687 20.044349,19.2446322 19.8669531,19.5701699 C19.6893841,19.895754 19.3618873,20.0928328 19.0107723,20.085771" id="Fill-5" fill="#FF6F26"></path>
                        <path d="M16.0000223,26 C15.4486069,26 15.0012472,25.5410939 15,24.9743742 L15,19.0277317 C15,18.4600964 15.447716,18 16.0000223,18 C16.552284,18 17,18.4600964 17,19.0277317 L17,24.9743742 C16.9987528,25.5410939 16.5513931,26 16.0000223,26" id="Fill-7" stroke="#FF6F26" stroke-width="0.5" fill="#FF6F26"></path>
                        <path d="M15.9682729,20 C15.5798438,20.0018963 15.2036484,19.8428422 14.9075008,19.5516681 L12.3405077,17.0080287 C12.0782673,16.7537482 11.9540682,16.3558676 12.0154481,15.9658367 C12.0767857,15.5761001 12.3140509,15.2543124 12.6368246,15.1236152 C12.9595983,14.9929181 13.3180994,15.0732301 13.5755565,15.3340357 L15.9682729,17.7053746 L18.4244435,15.2721704 C18.6819006,15.0113157 19.0404017,14.9308565 19.3631754,15.0617499 C19.6859491,15.1924471 19.9233836,15.5139896 19.9845519,15.9040205 C20.0459318,16.2938061 19.9217327,16.6917848 19.6594923,16.9461635 L17.029172,19.5516681 C16.7328551,19.8430384 16.3566597,20.0018963 15.9682729,20" id="Fill-9" stroke="#FF6F26" stroke-width="0.5" fill="#FF6F26"></path>
                    </g>
                </g>
            </g>
        </g>
    </g>
</svg>