<?xml version="1.0" encoding="UTF-8"?>
<svg width="90px" height="90px" viewBox="0 0 90 90" version="1.1" xmlns="http://www.w3.org/2000/svg" xmlns:xlink="http://www.w3.org/1999/xlink">
    <title>icon_chajia </title>
    <g id="页面-1" stroke="none" stroke-width="1" fill="none" fill-rule="evenodd">
        <g id="开通分销" transform="translate(-600.000000, -964.000000)">
            <g id="2备份" transform="translate(39.000000, 964.000000)">
                <g id="赚取二级返利备份" transform="translate(540.000000, 0.000000)">
                    <g id="icon_chajia-" transform="translate(21.000000, 0.000000)">
                        <circle id="椭圆形备份-8" fill="#FFF4EE" cx="45" cy="45" r="45"></circle>
                        <g id="编组-8" transform="translate(26.000000, 30.000000)">
                            <path d="M4.43288835,2.18001153 C6.96598066,0.77847457 10.2905774,0 13.9319149,0 C17.4147197,0 20.4228074,0.77847457 22.9558998,2.02356265 C25.3305984,3.26954607 27.3887881,5.13755518 27.7052971,7.62735435 C27.8636444,8.4057818 27.2304408,9.33980991 26.4388437,9.49531633 C25.6472929,9.65086988 24.6973485,9.02889131 24.5390013,8.25041675 C24.380654,7.16088221 23.430756,5.91489879 21.3727518,4.98200163 C19.4729094,4.04802064 16.7814699,3.42491112 13.7735677,3.42491112 C10.6070863,3.42491112 7.75753142,4.20357418 5.857689,5.29292023 C3.95784658,6.07153617 3.16629581,7.31643575 3.16629581,8.4057818 C3.16629581,9.33980991 3.64133759,10.4293444 5.06613824,11.3633254 C6.33273077,12.2973064 8.23238767,13.075781 10.6070863,13.542206 C11.398869,13.6988905 12.0320725,14.4762341 11.8737253,15.4102151 C11.715378,16.1886426 10.9238272,16.811705 9.97388283,16.6561985 C7.59918417,16.1886426 5.38283275,15.4102151 3.64133759,14.3208691 C3.64133759,14.3208691 3.64133759,14.4762341 3.48299033,14.4762341 C3.32464307,14.943743 3.16629581,15.2546616 3.16629581,15.7222176 C3.16629581,16.6551147 3.64133759,17.5902267 5.06613824,18.6797612 C6.33273077,19.6126584 8.23238767,20.3910858 10.6070863,20.8586418 C11.398869,21.0141953 12.0320725,21.7915389 11.8737253,22.7266509 C11.715378,23.5050783 10.9238272,24.1270569 9.97388283,23.9715505 C7.44083691,23.5050783 5.2244855,22.7266509 3.48299033,21.4817513 C3.32464307,21.7926228 3.16629581,22.2590949 3.16629581,22.7255199 C3.16629581,23.8161854 3.95784658,24.9055315 5.69934174,25.9961498 C7.44083691,27.0846005 9.97388283,27.8630751 12.8236233,28.0184401 C13.6152204,28.0184401 14.2484239,28.7970561 14.2484239,29.5754835 C14.2484239,30.5095116 13.4568732,31.1324327 12.5069288,30.9759367 C9.18233207,30.8203831 6.17438352,29.8864021 3.95784658,28.485949 C1.74149517,27.2410494 0,25.2165914 0,22.7266509 C0,21.6371163 0.316694516,20.7030882 0.791550763,19.7691072 L1.26663892,19.3017398 C0.474856247,18.2122052 0,17.1237545 0,15.7222176 C0,14.6328715 0.316694516,13.6988905 0.791550763,12.7648624 C0.949898021,12.4538024 1.10829166,12.2973064 1.42480065,12.1418 C0.474856247,11.2077719 0,9.96287231 0,8.4057818 C0,5.75934524 1.89984242,3.58046467 4.43288835,2.18001153" id="icon_chajia" fill="#303133"></path>
                            <path d="M33.9056163,19.9747396 C32.4883652,21.1827602 29.6537245,22.2396754 26.1891892,22.2396754 C22.8822083,22.2396754 20.2050297,21.3345058 18.7877785,20.276539 L18.472762,19.9747396 C17.8429136,19.3714608 17.5278972,18.7669018 17.5278972,18.3132197 C17.5278972,17.5580125 18.1579301,16.6517456 19.7326895,15.7456158 C21.3074489,14.8404918 23.6695649,14.3868554 26.1891892,14.3868554 C28.7088135,14.3868554 31.0709756,14.9902714 32.6458734,15.7456158 C34.2206328,16.6517456 34.8505273,17.5580125 34.8505273,18.3132197 C34.8505273,18.7669018 34.5354647,19.3703178 33.9056163,19.9747396 M32.6458734,26.6197218 C31.0709756,27.5250287 28.7088135,27.9784822 26.1891892,27.9784822 C23.6695649,27.9784822 21.3074489,27.3751119 19.7326895,26.6197218 C18.1579301,25.7136378 17.5278972,24.8074623 17.5278972,24.0520722 C17.5278972,23.7504099 17.5278972,23.5994416 17.8429136,23.2967278 C20.0475214,24.5056628 23.0397165,25.2600471 26.1891892,25.2600471 C29.338708,25.2600471 32.3308569,24.5056628 34.5354647,23.2967278 C34.6930191,23.5984358 34.8505273,23.7504099 34.8505273,24.0520722 C34.8505273,24.8074623 34.2206328,25.7136378 32.6458734,26.6197218 M38,18.3132197 C38,16.0483296 36.2677324,14.2350185 34.2206328,13.1790177 C32.0158405,11.9701283 29.1813843,11.3666667 26.1891892,11.3666667 C23.1972248,11.3666667 20.3625379,11.9701283 18.1579301,13.1790177 C16.110646,14.2358872 14.3783784,16.0483296 14.3783784,18.3132197 C14.3783784,19.3703178 14.8509031,20.4274159 15.4807976,21.1827602 C14.8509031,21.9379675 14.3783784,22.8442344 14.3783784,24.0520722 C14.3783784,26.3180139 16.110646,28.1304563 18.1579301,29.1875544 C20.660807,30.38986 23.4076971,31.0096895 26.1891892,30.9998855 C29.338708,30.9998855 32.0158405,30.3953921 34.2206328,29.1875544 C36.2677324,28.1304563 38,26.3180139 38,24.0520722 C38,22.8442344 37.5276598,21.9379675 37.0551351,21.1827602 C37.5276598,20.4274159 38,19.3703178 38,18.3132197" id="Fill-3" fill="#FF6F26"></path>
                        </g>
                    </g>
                </g>
            </g>
        </g>
    </g>
</svg>