<?xml version="1.0" encoding="UTF-8"?>
<svg width="90px" height="90px" viewBox="0 0 90 90" version="1.1" xmlns="http://www.w3.org/2000/svg" xmlns:xlink="http://www.w3.org/1999/xlink">
    <title>icon_houtai</title>
    <g id="页面-1" stroke="none" stroke-width="1" fill="none" fill-rule="evenodd">
        <g id="开通分销" transform="translate(-60.000000, -964.000000)">
            <g id="2备份" transform="translate(39.000000, 964.000000)">
                <g id="icon_houtai" transform="translate(21.000000, 0.000000)">
                    <circle id="椭圆形" fill="#FFF4EE" cx="45" cy="45" r="45"></circle>
                    <path d="M39.9748737,37.0251263 C40.5606602,37.6109127 40.5606602,38.5606602 39.9748737,39.1464466 L38.1207864,40.9997864 L39.9748737,42.8535534 C40.5240485,43.4027282 40.5583719,44.2717906 40.077844,44.8609513 L39.9748737,44.9748737 C39.3890873,45.5606602 38.4393398,45.5606602 37.8535534,44.9748737 L37.8535534,44.9748737 L35.0251263,42.1464466 C34.7103678,41.8316881 34.5647373,41.4118469 34.5882349,40.9998504 C34.5647373,40.5881531 34.7103678,40.1683119 35.0251263,39.8535534 L37.8535534,37.0251263 C38.4393398,36.4393398 39.3890873,36.4393398 39.9748737,37.0251263 Z" id="形状结合" fill="#FF6F26"></path>
                    <rect id="矩形" fill="#FF6F26" transform="translate(44.500000, 41.000000) rotate(15.000000) translate(-44.500000, -41.000000) " x="43" y="35" width="3" height="12" rx="1.5"></rect>
                    <path d="M53.9748737,37.0251263 C54.5606602,37.6109127 54.5606602,38.5606602 53.9748737,39.1464466 L52.1207864,40.9997864 L53.9748737,42.8535534 C54.5240485,43.4027282 54.5583719,44.2717906 54.077844,44.8609513 L53.9748737,44.9748737 C53.3890873,45.5606602 52.4393398,45.5606602 51.8535534,44.9748737 L51.8535534,44.9748737 L49.0251263,42.1464466 C48.7103678,41.8316881 48.5647373,41.4118469 48.5882349,40.9998504 C48.5647373,40.5881531 48.7103678,40.1683119 49.0251263,39.8535534 L51.8535534,37.0251263 C52.4393398,36.4393398 53.3890873,36.4393398 53.9748737,37.0251263 Z" id="形状结合" fill="#FF6F26" transform="translate(51.500000, 41.000000) scale(-1, 1) translate(-51.500000, -41.000000) "></path>
                    <rect id="矩形" stroke="#303133" stroke-width="3" x="29.5" y="29.5" width="31" height="23" rx="4"></rect>
                    <rect id="矩形" fill="#303133" x="33" y="59" width="24" height="3" rx="1.5"></rect>
                </g>
            </g>
        </g>
    </g>
</svg>