<?xml version="1.0" standalone="no"?>
<svg t="1706583461010" class="icon" viewBox="0 0 1024 1024" version="1.1" xmlns="http://www.w3.org/2000/svg"
	p-id="10783" xmlns:xlink="http://www.w3.org/1999/xlink" width="200" height="200">
	<path
		d="M622.9504 271.36c-28.672 0-56.8832 7.424-81.7152 21.6064A140.1856 140.1856 0 0 0 467.712 413.696v196.5056c0 29.184-29.5936 53.6576-66.816 53.6576-37.1712 0-66.6112-24.4736-66.6112-53.6576 0.9728-21.1968 15.1552-40.2432 36.0448-47.7696l5.7344-2.1504c17.9712-6.2976 32.768-19.6608 40.7552-37.0688 10.3936-28.5696-9.0624-51.9168-40.5504-51.9168a70.2976 70.2976 0 0 0-21.7088 3.584c-36.8128 10.24-68.7616 33.9968-89.088 66.4576a132.0448 132.0448 0 0 0-19.712 69.4272c0 78.336 69.9392 141.9264 155.2896 141.9264a164.608 164.608 0 0 0 81.92-21.6064 140.2368 140.2368 0 0 0 73.8816-120.6272v-196.608c0-29.184 29.4912-53.76 66.6112-53.76 37.1712 0 66.6624 24.576 66.6624 53.76-1.024 20.3264-13.9264 38.5024-33.024 46.7968l-5.888 2.2016c-19.7632 5.9904-35.84 20.3776-43.776 39.2192-9.8816 28.416 9.0624 51.6608 40.5504 51.6608 4.7104-0.2048 9.216-0.8192 13.568-1.792l8.8064-2.5088a153.6 153.6 0 0 0 88.7808-66.4064c12.8-21.1968 19.3536-45.2608 19.0976-69.7856 0-75.4176-65.024-137.216-146.2272-141.568l-9.0624-0.256z"
		fill="#FF594D" p-id="10784" data-spm-anchor-id="a313x.search_index.0.i10.3bf33a81l2Qyel" class=""></path>
	<path
		d="M512 0C229.2736 0 0 229.376 0 512c0 282.8288 229.2736 512 512 512s512-229.1712 512-512c0-282.624-229.2736-512-512-512z m0 936.96A424.704 424.704 0 0 1 87.04 512c0-234.8032 190.1056-424.96 424.96-424.96 234.752 0 424.96 190.1056 424.96 424.96 0 234.8544-190.0032 424.96-424.96 424.96z"
		fill="#2c2c2c" p-id="10785" data-spm-anchor-id="a313x.search_index.0.i13.3bf33a81l2Qyel" class="selected">
	</path>
</svg>