<?xml version="1.0" standalone="no"?><!DOCTYPE svg PUBLIC "-//W3C//DTD SVG 1.1//EN" "http://www.w3.org/Graphics/SVG/1.1/DTD/svg11.dtd"><svg t="1706583353360" class="icon" viewBox="0 0 1024 1024" version="1.1" xmlns="http://www.w3.org/2000/svg" p-id="5304" xmlns:xlink="http://www.w3.org/1999/xlink" width="200" height="200"><path d="M639.9 935.5c-47.6 0-92.4-10.3-127.9-29.2-35.5 18.9-80.3 29.2-127.9 29.2-52.8 0-102.1-12.5-138.6-35.1-22.2-13.7-39.7-30.8-52-50.6-12.9-20.9-19.5-43.8-19.5-68.1 0-5.3 0.3-10.7 1-15.9-9.8-7.8-18.4-17.2-25.5-28.2-12.7-19.5-20.8-43.3-24.2-70.8-4.8-39.2 0.4-87.3 14.2-132.1 12.1-38.8 32-70.2 49-92 1.8-20.1 6.9-39.7 15.3-58.5 3.6-78.2 35.9-151.3 91.7-206.6 57.9-57.4 134.4-89 215.4-89h2.1c81 0 157.5 31.6 215.4 89 55.8 55.3 88.1 128.4 91.7 206.6 8.4 18.9 13.6 38.5 15.3 58.5 17 21.8 36.9 53.1 49 91.9v0.1c13.8 44.7 19 92.9 14.2 132.1-3.3 27.4-11.5 51.3-24.2 70.7-7.1 10.9-15.7 20.4-25.5 28.2 0.6 5.2 1 10.5 1 15.9 0 24.3-6.6 47.2-19.5 68.1-12.3 19.9-29.8 36.9-52 50.7-36.5 22.6-85.7 35.1-138.5 35.1zM518.4 829.1c7.2 0 14.2 2.1 20.3 6 25 16.1 61.9 25.4 101.2 25.4 39.1 0 74.3-8.5 99.2-23.9 16.4-10.1 36-27.9 36-55 0-6.9-1.3-13.6-3.8-19.8-3.8-9.4-3.7-19.9 0.4-29.2 4.1-9.3 11.7-16.5 21.2-20.1 22.7-8.6 29.5-38 31.6-54.8 3.5-28.7-0.7-66.4-11.4-100.9-10.3-33.1-29-59.4-42.7-75.7-5.7-6.7-8.8-15.1-8.9-23.8-0.2-16.2-4.2-32.2-11.8-47.5-2.5-5-3.8-10.5-3.9-16-2.8-127-107.1-230.3-232.8-230.3h-2c-125.7 0-229.9 103.3-232.4 230.4-0.1 5.6-1.5 11-3.9 16-7.6 15.3-11.6 31.2-11.8 47.5-0.1 8.7-3.3 17.1-8.9 23.8-13.8 16.2-32.4 42.6-42.8 75.7-10.6 34.4-14.9 72.1-11.4 100.7 2 16.9 8.9 46.3 31.6 54.9 9.5 3.6 17.1 10.8 21.2 20.1s4.2 19.8 0.4 29.2c-2.5 6.2-3.8 12.9-3.8 19.8 0 27.1 19.5 44.9 35.9 55 24.9 15.4 60.1 23.9 99.2 23.9 39.3 0 76.2-9.3 101.2-25.4 6.3-4.1 13.7-6.2 21.3-6 1.2 0 3.4 0 4.2 0.1H513.3c0.8 0 3 0 4.2-0.1h0.9z" fill="#3A3A3A" p-id="5305"></path><path d="M320.1 627.8c-12.8 0-25.2-6.5-32.3-18.3-10.6-17.8-4.7-40.8 13.1-51.4 5.8-3.5 9.9-7.3 12.6-11.7 2.6-4.4 3.3-8.5 4.4-17.5 1.5-11.2 3.5-26.5 12.4-43.9 1.8-3.6 3.9-7.2 6.1-10.6-2.7-1.4-5.5-2.8-8.2-4.3-18.2-9.9-25-32.6-15.1-50.8s32.6-25 50.8-15.1c28.3 15.3 55.1 22.3 81.9 21.1 19.7-0.8 34-5.9 52-12.3 17.8-6.3 38-13.5 66-17.8 38.4-5.9 77.6-4 116.4 5.5 20.1 4.9 32.4 25.3 27.5 45.4-5 20.1-25.3 32.4-45.4 27.5-29.2-7.2-58.5-8.6-87.1-4.2-20.9 3.2-36.1 8.6-52.2 14.3-21.1 7.5-43 15.3-74.1 16.6-11.2 0.5-22.4 0-33.7-1.3-1.5 1.8-3.3 3.4-5.2 4.9-5.9 4.6-10.1 9.5-12.9 15.1-2.9 5.8-3.7 10.7-4.9 19.8-1.6 12-3.7 28.3-14.5 46.2-9.1 15.1-22 27.8-38.6 37.6-5.8 3.5-12.4 5.2-19 5.2z" fill="#FF594D" p-id="5306" data-spm-anchor-id="a313x.manage_type_myprojects.0.i18.5cb43a810OyuQr" class="selected"></path></svg>