<?xml version="1.0" standalone="no"?>
<svg t="1706583008227" class="icon" viewBox="0 0 1048 1024" version="1.1" xmlns="http://www.w3.org/2000/svg" p-id="5108"
	xmlns:xlink="http://www.w3.org/1999/xlink" width="204.6875" height="200">
	<path d="M524.188098 617.971512l-60.865561 158.869854 60.865561 87.739317 60.865561-87.739317z" fill="#FF594D"
		p-id="5109" data-spm-anchor-id="a313x.manage_type_myprojects.0.i13.5cb43a810OyuQr" class=""></path>
	<path
		d="M941.630439 938.78322H106.695805a42.708293 42.708293 0 0 1-41.809171-51.175025l7.79239-38.312585a99.677659 99.677659 0 0 1 52.099122-63.687805l258.997074-128.049951c1.373659-0.674341 4.046049-2.097951 4.046048-2.097952 22.727805-12.387902 33.267512-27.722927 33.267512-27.722926s5.219902-7.917268 7.168-13.162147c2.372683-6.318829 2.372683-15.409951 2.372683-15.434927a46.30478 46.30478 0 0 0-18.282146-36.589268l0.124878-0.124878C348.16 513.548488 304.702439 424.585366 304.702439 322.035512c0-154.923707 98.279024-257.998049 219.485659-257.998049 121.23161 0 219.485659 103.074341 219.485658 257.998049 0 102.549854-43.457561 191.512976-107.769756 240.390244l0.149854 0.124878c-10.989268 8.491707-18.03239 21.10439-18.307122 36.589268-0.024976 0.024976 0 9.116098 2.372683 15.434927 1.948098 5.244878 7.168 13.162146 7.168 13.162147s10.489756 15.335024 33.267512 27.722926l3.996097 2.097952 259.047025 128.049951a99.602732 99.602732 0 0 1 52.099122 63.687805l7.79239 38.312585a42.708293 42.708293 0 0 1-41.859122 51.175025m104.597854-63.88761l-7.767415-38.312586c-0.249756-1.24878-0.549463-2.497561-0.874146-3.746341a163.740098 163.740098 0 0 0-85.616391-104.622829l-241.214439-119.458342a61.340098 61.340098 0 0 1-11.039219-6.643512c-4.795317-3.971122 0.649366-10.439805 4.820293-14.810537 2.347707-2.422634 4.071024-4.046049 4.071024-4.046048 62.039415-64.512 99.128195-159.044683 99.128195-261.219903C807.71122 138.439805 685.830244 0 524.188098 0 362.545951 0 240.664976 138.439805 240.664976 322.035512c0 102.17522 37.063805 196.707902 99.103219 261.219903 0 0 1.748293 1.623415 4.071025 4.046048 4.170927 4.370732 9.61561 10.839415 4.820292 14.810537-2.197854 1.773268-6.493659 4.49561-11.039219 6.643512L96.405854 728.213854a163.740098 163.740098 0 0 0-85.616391 104.622829c-0.324683 1.24878-0.62439 2.497561-0.874146 3.746341L2.147902 874.89561a106.321171 106.321171 0 0 0 21.978537 88.738341 106.27122 106.27122 0 0 0 82.594341 39.161756h834.909659a106.27122 106.27122 0 0 0 82.619317-39.161756 106.321171 106.321171 0 0 0 21.978537-88.738341"
		fill="#333333" p-id="5110"></path>
</svg>