<?xml version="1.0" standalone="no"?><!DOCTYPE svg PUBLIC "-//W3C//DTD SVG 1.1//EN" "http://www.w3.org/Graphics/SVG/1.1/DTD/svg11.dtd"><svg t="1706583864185" class="icon" viewBox="0 0 1024 1024" version="1.1" xmlns="http://www.w3.org/2000/svg" p-id="13954" data-spm-anchor-id="a313x.search_index.0.i20.3bf33a81wLZd9Z" xmlns:xlink="http://www.w3.org/1999/xlink" width="200" height="200"><path d="M614.814 575.757c0.086-21.619-15.995-38.364-36.907-38.43-20.672-0.075-37.722 17.148-37.754 38.082-0.033 20.934 16.864 38.527 37.286 38.614 20.706 0.055 37.287-16.908 37.375-38.266z m118.986 0.675c0.403 21.282 17.408 38.08 38.081 37.548 20.379-0.49 37.08-18.431 36.569-39.289-0.512-20.858-17.757-37.885-38.299-37.45-20.542 0.435-36.743 17.68-36.351 39.19zM350.978 361.024c0.086-21.63-15.995-38.375-36.918-38.44-20.618-0.065-37.71 17.147-37.743 38.081-0.033 20.934 16.853 38.527 37.286 38.614 20.717 0.054 37.287-16.908 37.375-38.255z m118.986 0.664c0.392 21.282 17.408 38.08 38.081 37.548 20.379-0.49 37.08-18.432 36.569-39.29-0.512-20.857-17.768-37.884-38.299-37.45-20.76 0.436-36.743 17.714-36.351 39.192z" fill="#FF594D" p-id="13955" data-spm-anchor-id="a313x.search_index.0.i21.3bf33a81wLZd9Z" class="selected"></path><path d="M936.696 788.042l-30.748-60.592A232.838 232.838 0 0 0 936.783 611.5c0-116.789-87.315-214.712-204.19-240.552-3.71-27.603-18.334-62.214-20.673-67.567C674.687 218.21 543.983 127 408.828 127 219.315 127 65.152 269.26 65.152 444.117c0 60.81 18.497 119.302 53.618 170.135L32 785.159l210.631-63.53c65.064 33.174 140.802 45.893 215.3 36.025 48.33 61.278 125.939 101.284 213.58 101.284a281.125 281.125 0 0 0 114.242-24.165l89.317 26.973L992 896.998l-55.304-108.956z m-678.69-117.387l-9.64-5.299-114.494 34.524 46.165-90.97-10.064-13.057c-34.404-44.609-52.595-97.117-52.595-151.736 0-146.057 130.737-264.892 291.45-264.892 109.793 0 225.298 76.608 255.251 145.089 2.85 6.528 8.987 25.025 13.34 40.028-1.98 0-3.928-0.272-5.909-0.272-146.296 0-265.294 110.98-265.294 247.429a232 232 0 0 0 21.076 96.606c-59.396 3.406-118.574-9.51-169.287-37.45zM781.14 778.816a226.625 226.625 0 0 1-109.63 27.897c-117.68 0-213.068-87.401-213.068-195.214s95.387-195.203 213.068-195.203c117.682 0 213.047 87.39 213.047 195.203 0 41.9-14.416 80.7-38.93 112.502l44.5 87.695-108.987-32.88z" fill="#000000" p-id="13956"></path></svg>