<?xml version="1.0" encoding="UTF-8"?>
<svg width="30px" height="30px" viewBox="0 0 30 30" version="1.1" xmlns="http://www.w3.org/2000/svg" xmlns:xlink="http://www.w3.org/1999/xlink">
    <title>icon_zheng</title>
    <g id="页面-1" stroke="none" stroke-width="1" fill="none" fill-rule="evenodd">
        <g id="下单" transform="translate(-15.000000, -1094.000000)" fill="#26C87F">
            <g id="编组-6" transform="translate(15.000000, 1092.000000)">
                <g id="编组-11" transform="translate(0.000000, 2.000000)">
                    <g id="编组" transform="translate(3.000000, 3.000000)">
                        <path d="M12.0000582,21.8823529 C6.54213596,21.8823529 2.11764706,17.457864 2.11764706,12.0000582 C2.11764706,6.54213596 6.54213596,2.11764706 12.0000582,2.11764706 C17.457864,2.11764706 21.8823529,6.54213596 21.8823529,12.0000582 C21.8771193,17.4557124 17.4556834,21.8771193 12.0000582,21.8823529 M12.000063,0 C5.37252041,0 0,5.37252041 0,12.000063 C0,18.6274796 5.37252041,24 12.000063,24 C18.6274796,24 24,18.6274796 24,12.000063 C23.9914963,5.37607937 18.6238891,0.00850371381 12.000063,0" id="Fill-1"></path>
                        <path d="M16.7067033,15.9542165 L12.7770014,15.9542165 L12.7770014,12.5076616 L16.3434697,12.5076616 C16.7909169,12.5076616 17.0497269,12.242281 17.1199959,11.7115197 C17.0479597,11.1824716 16.7891498,10.9035831 16.3434697,10.87492 L12.7770014,10.87492 L12.7770014,8.05437349 L16.448793,8.05437349 C16.8962402,8.05437349 17.155018,7.78899284 17.2251907,7.25826451 C17.2181541,6.82159721 16.8746807,6.46923893 16.448793,6.46202374 L6.5203878,6.46202374 C6.31227956,6.45444614 6.11046886,6.53588884 5.96311909,6.68684776 C5.81589785,6.83780668 5.73643951,7.04490572 5.74399014,7.25826451 C5.77724505,7.78899284 6.03605498,8.05437349 6.5203878,8.05437349 L11.1212926,8.05437349 L11.1212926,15.9542165 L8.89989691,15.9542165 L8.89989691,10.2864701 C8.90619446,10.0523883 8.82159526,9.82522507 8.66457426,9.65525626 C8.50755327,9.48512273 8.29118752,9.38598798 8.06290142,9.3795635 C7.83924208,9.38203446 7.62711755,9.48136687 7.47902878,9.6532795 C7.33103641,9.82509329 7.26102439,10.0533108 7.28637523,10.281067 L7.28637523,15.9488134 L6.26244539,15.9488134 C6.06918136,15.9443327 5.88253619,16.021163 5.7458537,16.1613156 C5.60917121,16.3014352 5.53424325,16.4928519 5.5386451,16.6910226 C5.57202853,17.2219156 5.81326316,17.5043953 6.26244539,17.5384615 L16.8093597,17.5384615 C17.2954597,17.5061744 17.5384615,17.2254738 17.5384615,16.6964257 C17.5034395,16.2586053 17.1344546,15.9294081 16.7067033,15.9542165" id="Fill-3"></path>
                    </g>
                </g>
            </g>
        </g>
    </g>
</svg>