<?xml version="1.0" encoding="UTF-8"?>
<svg width="30px" height="30px" viewBox="0 0 30 30" version="1.1" xmlns="http://www.w3.org/2000/svg" xmlns:xlink="http://www.w3.org/1999/xlink">
    <title>icon_anquan</title>
    <g id="页面-1" stroke="none" stroke-width="1" fill="none" fill-rule="evenodd">
        <g id="下单" transform="translate(-206.000000, -1094.000000)" fill="#26C87F">
            <g id="编组-5" transform="translate(206.000000, 1092.000000)">
                <g id="编组-12" transform="translate(0.000000, 2.000000)">
                    <g id="编组" transform="translate(5.000000, 4.000000)">
                        <path d="M17.7972167,13.060453 C17.7972167,15.3113771 16.4901473,17.2776257 13.9124058,18.9049177 C12.2663707,19.9439743 10.5913092,20.5126949 10.0216556,20.6893186 C8.7720602,20.3105818 2.20278328,18.0791725 2.20278328,13.060453 L2.20278328,3.70900336 L10.0240313,2.28931857 L17.7972167,3.70828282 L17.7972167,13.060453 Z M19.3184548,1.68216325 L10.1777675,0.0136330389 C10.0778323,-0.00452827075 9.97522778,-0.00452827075 9.8751298,0.0135367775 L0.682456649,1.68206699 C0.286980101,1.75391005 0,2.09371264 0,2.49002066 L0,13.1684857 C0,14.8523535 0.537859824,16.4261946 1.59860546,17.8464347 C2.42311987,18.9504241 3.56254415,19.9584089 4.98530269,20.8423128 C7.36353308,22.3199567 9.71275948,22.9464257 9.81155538,22.972352 C9.9539712,23.0097015 10.1037764,23.0092201 10.2459318,22.970844 C10.3441092,22.9444363 12.6797288,22.3050362 15.0439292,20.8211353 C16.4582893,19.9333489 17.5909101,18.9249791 18.4104115,17.8236208 C19.4652001,16.4062685 20,14.8400641 20,13.1684857 L20,2.49002066 C20,2.09390517 19.7135407,1.75435927 19.3184548,1.68216325 L19.3184548,1.68216325 Z" id="Fill-1"></path>
                        <path d="M6.70566922,9.58725637 C6.37560531,9.23979303 5.84067072,9.23979303 5.51060681,9.58725637 C5.18067492,9.93461546 5.18067492,10.4978535 5.51060681,10.8452126 L8.86461727,14.3758918 C9.03080445,14.5508743 9.2489767,14.6376012 9.46671986,14.6363636 C9.68449603,14.6376012 9.9027673,14.5508743 10.0689875,14.3758918 L15.5419753,8.83670082 C15.8719071,8.48937647 15.8720392,7.92610367 15.5419753,7.57877932 C15.2120434,7.23131598 14.6769768,7.23131598 14.3470449,7.57877932 L9.47833811,12.5062263 L6.70566922,9.58725637 Z" id="Fill-3"></path>
                    </g>
                </g>
            </g>
        </g>
    </g>
</svg>