<svg data-v-ecb495fd="" xmlns="http://www.w3.org/2000/svg" viewBox="0 0 119.51 23.74" style="fill: currentcolor; overflow: hidden;"><g class="icon-color-1" data-v-ecb495fd=""><path d="m25.06,5.01h-6.26l-1.45,2.17h-5.14l-.92-2.17h-6.26l.92,2.17h-3.72L0,23.15h4.68l1.35-9.71h5.33l2.27-2.8h-5.63l-1.91,2.34.43-2.96h15.67l-.43,3-1.25-2.37h-5.63l1.48,2.8h5.33l-.95,6.78-2.9,2.93h4.94c.64,0,1.2-.21,1.68-.64.48-.43.77-.96.86-1.6l1.94-13.73h-3.66l1.45-2.17Z" data-v-ecb495fd=""></path><path d="m20.32,14.06H7.18l-.92,6.59h13.14l.92-6.59Zm-4.61,4.08h-5.01l.23-1.58h5.01l-.23,1.58Z" data-v-ecb495fd=""></path><polygon points="18.87 0 11.36 0 12.48 .99 12.38 1.58 2.4 1.58 2.01 4.38 28.29 4.38 28.68 1.58 18.64 1.58 18.87 0" data-v-ecb495fd=""></polygon><path d="m32.31,11.89l-1.58,11.26h12.51l1.58-11.26h-12.51Zm6.36,8.13h-2.5l.72-5.01h2.5l-.72,5.01Z" data-v-ecb495fd=""></path><path d="m46.07,11.89l-1.58,11.26h12.51l1.58-11.26h-12.51Zm6.36,8.13h-2.5l.72-5.01h2.5l-.72,5.01Z" data-v-ecb495fd=""></path><path d="m55.62,10.64l1.42-10.01h-21.27l1.09,1.25-1.25,8.76h20.02Zm-12.78-6.88h7.51l-.53,3.75h-7.51l.53-3.75Z" data-v-ecb495fd=""></path></g><g class="icon-color-2" data-v-ecb495fd=""><path d="m83.64,1.48l-2.67,19.17-2.9,3.03h5.37c.61,0,1.17-.21,1.66-.63.49-.42.78-.93.87-1.55L89.01.03h-6.06l.69,1.45Z" data-v-ecb495fd=""></path><polygon points="82.79 1.32 78.44 1.32 76.1 18.08 80.45 18.08 82.79 1.32" data-v-ecb495fd=""></polygon><polygon points="70.14 3.92 77.22 3.92 77.68 .69 62.8 .69 62.34 3.92 64.48 3.92 61.25 11.69 66.92 11.69 67.77 9.62 70.77 9.62 67.47 15.21 66.59 13.3 62.27 13.3 64.74 18.24 65.7 18.24 64.02 21.11 61.25 21.11 60.86 23.68 67.97 23.68 75.54 10.37 76.07 6.62 69.02 6.62 70.14 3.92" data-v-ecb495fd=""></polygon><polygon points="118.81 4.38 119.24 1.25 109.86 1.25 110.05 0 102.55 0 103.6 1.25 94.21 1.25 93.79 4.38 103.17 4.38 102.97 5.63 94.25 5.63 93.79 8.76 102.55 8.76 102.35 10.01 92.37 10.01 91.94 13.14 96.92 13.14 91.22 18.14 94.97 18.14 94.18 23.71 106.17 23.15 106.6 20.02 100.93 20.32 101.69 15.02 101.03 15.02 103.17 13.14 118.22 13.14 118.65 10.01 108.61 10.01 108.8 8.76 117.56 8.76 118.02 5.63 109.23 5.63 109.43 4.38 118.81 4.38" data-v-ecb495fd=""></polygon><polygon points="117.33 15.02 111.83 15.91 110.58 14.09 104.32 14.09 111.08 23.71 117.33 23.71 113.78 18.67 116.87 18.14 117.33 15.02" data-v-ecb495fd=""></polygon></g></svg>