<?xml version="1.0" standalone="no"?><!DOCTYPE svg PUBLIC "-//W3C//DTD SVG 1.1//EN" "http://www.w3.org/Graphics/SVG/1.1/DTD/svg11.dtd"><svg t="1672304349906" class="icon" viewBox="0 0 1024 1024" version="1.1" xmlns="http://www.w3.org/2000/svg" p-id="48854" xmlns:xlink="http://www.w3.org/1999/xlink" width="128" height="128"><path d="M200.2432 724.1216c-9.3184 0-18.5856-3.584-25.6-10.752-13.824-14.1312-13.6192-36.864 0.5632-50.688l184.32-180.3776a35.83488 35.83488 0 0 1 50.688 0.5632c13.824 14.1312 13.6192 36.864-0.5632 50.688l-184.32 180.3776a36.06528 36.06528 0 0 1-25.088 10.1888zM818.2272 721.3056c-9.3184 0-18.5856-3.584-25.6-10.8032l-176.384-180.3776c-13.824-14.1312-13.568-36.864 0.5632-50.688s36.864-13.568 50.688 0.5632l176.384 180.3776c13.824 14.1312 13.568 36.864-0.5632 50.688a35.8912 35.8912 0 0 1-25.088 10.24z" fill="#eeb173" p-id="48855" data-spm-anchor-id="a313x.7781069.0.i23" class="selected"></path><path d="M781.568 889.1904H245.4016c-103.0656 0-186.88-83.8144-186.88-186.88V328.192c0-103.0656 83.8144-186.88 186.88-186.88h536.1664c103.0656 0 186.88 83.8144 186.88 186.88v374.1184c0 103.0656-83.8144 186.88-186.88 186.88zM245.4016 212.992c-63.5392 0-115.2 51.6608-115.2 115.2v374.1184c0 63.5392 51.6608 115.2 115.2 115.2h536.1664c63.5392 0 115.2-51.6608 115.2-115.2V328.192c0-63.5392-51.6608-115.2-115.2-115.2H245.4016z" fill="#434A54" p-id="48856"></path><path d="M512.4096 624.4864c-27.7504 0-55.5008-9.728-78.08-29.2352L84.3776 292.9152a35.85536 35.85536 0 0 1-9.216-41.9328C105.472 184.3712 172.288 141.312 245.4016 141.312h536.1664a186.624 186.624 0 0 1 172.288 114.3808c6.0928 14.4384 2.0992 31.1808-9.9328 41.3184l-354.5088 299.1616c-22.3744 18.8416-49.7152 28.3136-77.0048 28.3136zM153.9072 258.2528l327.3216 282.7264a47.47264 47.47264 0 0 0 62.0032 0.3584L875.264 261.12a115.03616 115.03616 0 0 0-93.696-48.128H245.4016c-36.2496 0-69.9904 17.152-91.4944 45.2608z" fill="#434A54" p-id="48857"></path></svg>