<?xml version="1.0" standalone="no"?><!DOCTYPE svg PUBLIC "-//W3C//DTD SVG 1.1//EN" "http://www.w3.org/Graphics/SVG/1.1/DTD/svg11.dtd"><svg t="1672304065617" class="icon" viewBox="0 0 1024 1024" version="1.1" xmlns="http://www.w3.org/2000/svg" p-id="47793" xmlns:xlink="http://www.w3.org/1999/xlink" width="128" height="128"><path d="M512 958.4128c-245.2992 0-444.8768-199.5776-444.8768-444.8768S266.7008 68.6592 512 68.6592s444.8768 199.5776 444.8768 444.8768-199.5776 444.8768-444.8768 444.8768z m0-818.0736c-205.7728 0-373.1968 167.424-373.1968 373.1968s167.424 373.1968 373.1968 373.1968 373.1968-167.424 373.1968-373.1968-167.424-373.1968-373.1968-373.1968z" fill="#434A54" p-id="47794"></path><path d="M664.32 558.2848H552.448V503.6032h111.872c19.8144 0 35.84-16.0256 35.84-35.84s-16.0256-35.84-35.84-35.84h-72.3456l56.8832-61.9008a35.80416 35.80416 0 0 0-2.1504-50.6368 35.80416 35.80416 0 0 0-50.6368 2.1504L516.608 408.0128 435.2 321.2288c-13.568-14.4384-36.2496-15.1552-50.6368-1.6384-14.4384 13.5168-15.1552 36.1984-1.6384 50.6368l57.8048 61.5936H368.896c-19.8144 0-35.84 16.0256-35.84 35.84s16.0256 35.84 35.84 35.84H480.768v54.6816H368.896c-19.8144 0-35.84 16.0256-35.84 35.84s16.0256 35.84 35.84 35.84H480.768v87.1936c0 19.8144 16.0256 35.84 35.84 35.84s35.84-16.0256 35.84-35.84v-87.1936h111.872c19.8144 0 35.84-16.0256 35.84-35.84s-16.0768-35.7376-35.84-35.7376z" fill="#eeb173" p-id="47795" data-spm-anchor-id="a313x.7781069.0.i13" class=""></path></svg>