<?xml version="1.0" standalone="no"?><!DOCTYPE svg PUBLIC "-//W3C//DTD SVG 1.1//EN" "http://www.w3.org/Graphics/SVG/1.1/DTD/svg11.dtd"><svg t="1672305249040" class="icon" viewBox="0 0 1024 1024" version="1.1" xmlns="http://www.w3.org/2000/svg" p-id="3617" data-spm-anchor-id="a313x.7781069.0.i7" xmlns:xlink="http://www.w3.org/1999/xlink" width="128" height="128"><path d="M863.744 104.704c-24.32-29.2352-61.5936-44.9536-105.472-43.9296-80.128 1.6896-173.1072 56.3712-247.7056 144.4352-74.6496-88.064-167.6288-142.7456-247.7568-144.4352-43.6224-0.9216-81.2032 14.6944-105.472 43.9296-24.7808 29.8496-25.4976 58.5216-21.76 77.2608 11.776 58.624 81.3056 96.4096 89.1904 100.5056a30.70464 30.70464 0 0 0 41.4208-13.0048c7.8848-15.0016 2.0992-33.536-12.9024-41.472-16.7424-8.8064-52.7872-34.6624-57.4464-58.2656-1.0752-5.2736-1.28-13.7216 8.8064-25.856 15.5136-18.6368 39.5264-22.2208 56.9344-21.76 51.3536 1.0752 139.4688 39.2704 218.7776 143.36 1.1776 1.5872 2.56 2.9696 3.9424 4.2496-0.0512 0.8704-0.1536 1.7408-0.1536 2.6112v642.7648c0 16.9472 13.7728 30.72 30.72 30.72s30.72-13.7728 30.72-30.72V272.4352c0-3.7376-0.7168-7.2704-1.8944-10.5472 78.5408-101.2736 165.1712-138.5984 215.9104-139.6736 17.408-0.4096 41.4208 3.1232 56.9344 21.76 10.0864 12.1344 9.8304 20.5312 8.8064 25.856-4.6592 23.552-40.704 49.408-57.4464 58.2656-15.0016 7.8848-20.8384 26.4192-13.0048 41.4208a30.74048 30.74048 0 0 0 27.2384 16.5376c4.8128 0 9.6256-1.1264 14.1824-3.4816 7.8848-4.096 77.4144-41.8816 89.1904-100.5056 3.7376-18.8416 3.0208-47.5136-21.76-77.3632z" fill="#eeb173" p-id="3618" data-spm-anchor-id="a313x.7781069.0.i8" class=""></path><path d="M857.4976 229.2224H167.2704c-73.4208 0-133.12 59.6992-133.12 133.12v18.3808c0 49.7152 27.392 93.0816 67.84 115.968v336.0256c0 68.352 55.6032 123.9552 123.9552 123.9552h577.6896c68.352 0 123.9552-55.6032 123.9552-123.9552v-338.944c37.7856-23.5008 62.976-65.3824 62.976-113.1008v-18.3808c0.0512-73.3696-59.648-133.0688-133.0688-133.0688z m8.704 284.6208v318.8224c0 34.4576-28.0576 62.5152-62.5152 62.5152H225.9968c-34.4576 0-62.5152-28.0576-62.5152-62.5152v-318.8224h702.72z m62.976-133.12c0 39.5264-32.1536 71.68-71.68 71.68H167.2704c-39.5264 0-71.68-32.1536-71.68-71.68v-18.3808c0-39.5264 32.1536-71.68 71.68-71.68h690.2272c39.5264 0 71.68 32.1536 71.68 71.68v18.3808z" fill="#303135" p-id="3619"></path></svg>