<?xml version="1.0" standalone="no"?><!DOCTYPE svg PUBLIC "-//W3C//DTD SVG 1.1//EN" "http://www.w3.org/Graphics/SVG/1.1/DTD/svg11.dtd"><svg t="1672305502248" class="icon" viewBox="0 0 1024 1024" version="1.1" xmlns="http://www.w3.org/2000/svg" p-id="4680" data-spm-anchor-id="a313x.7781069.0.i21" xmlns:xlink="http://www.w3.org/1999/xlink" width="128" height="128"><path d="M921.3952 708.5056c-16.9472 0-30.72-13.7728-30.72-30.72V502.9376c0-205.9776-167.5776-373.5552-373.5552-373.5552S143.5648 296.96 143.5648 502.9376v174.848c0 16.9472-13.7728 30.72-30.72 30.72s-30.72-13.7728-30.72-30.72V502.9376c0-239.872 195.1232-434.9952 434.9952-434.9952s434.9952 195.1232 434.9952 434.9952v174.848c0 16.9472-13.7216 30.72-30.72 30.72z" fill="#303135" p-id="4681"></path><path d="M241.2032 953.9072h-16.4864c-78.6432 0-142.6432-64-142.6432-142.6432v-114.8416c0-78.6432 64-142.6432 142.6432-142.6432h16.4864c78.6432 0 142.6432 64 142.6432 142.6432v114.8416c0 78.6432-64 142.6432-142.6432 142.6432z m-16.4864-338.6368c-44.7488 0-81.2032 36.4032-81.2032 81.2032v114.8416c0 44.7488 36.4032 81.2032 81.2032 81.2032h16.4864c44.7488 0 81.2032-36.4032 81.2032-81.2032v-114.8416c0-44.7488-36.4032-81.2032-81.2032-81.2032h-16.4864zM809.5232 953.9072h-16.4864c-78.6432 0-142.6432-64-142.6432-142.6432v-114.8416c0-78.6432 64-142.6432 142.6432-142.6432h16.4864c78.6432 0 142.6432 64 142.6432 142.6432v114.8416c-0.0512 78.6432-64 142.6432-142.6432 142.6432z m-16.4864-338.6368c-44.7488 0-81.2032 36.4032-81.2032 81.2032v114.8416c0 44.7488 36.4032 81.2032 81.2032 81.2032h16.4864c44.7488 0 81.2032-36.4032 81.2032-81.2032v-114.8416c0-44.7488-36.4032-81.2032-81.2032-81.2032h-16.4864z" fill="#eeb173" p-id="4682" data-spm-anchor-id="a313x.7781069.0.i20" class=""></path></svg>