<?xml version="1.0" standalone="no"?><!DOCTYPE svg PUBLIC "-//W3C//DTD SVG 1.1//EN" "http://www.w3.org/Graphics/SVG/1.1/DTD/svg11.dtd"><svg t="1672304337219" class="icon" viewBox="0 0 1024 1024" version="1.1" xmlns="http://www.w3.org/2000/svg" p-id="48643" xmlns:xlink="http://www.w3.org/1999/xlink" width="128" height="128"><path d="M738.8672 928.3072H286.4128c-106.4448 0-193.024-86.5792-193.024-193.024V285.1328c0-106.4448 86.5792-193.024 193.024-193.024h452.4544c106.4448 0 193.024 86.5792 193.024 193.024v450.0992c0 106.496-86.5792 193.0752-193.024 193.0752zM286.4128 163.7888c-66.9184 0-121.344 54.4256-121.344 121.344v450.0992c0 66.9184 54.4256 121.344 121.344 121.344h452.4544c66.9184 0 121.344-54.4256 121.344-121.344V285.1328c0-66.9184-54.4256-121.344-121.344-121.344H286.4128z" fill="#434A54" p-id="48644"></path><path d="M361.984 731.2384c-19.8144 0-35.84-16.0256-35.84-35.84V490.9056c0-19.8144 16.0256-35.84 35.84-35.84s35.84 16.0256 35.84 35.84v204.4928c0 19.7632-16.0768 35.84-35.84 35.84zM669.4912 731.2384c-19.8144 0-35.84-16.0256-35.84-35.84V490.9056c0-19.8144 16.0256-35.84 35.84-35.84s35.84 16.0256 35.84 35.84v204.4928c0 19.7632-16.0768 35.84-35.84 35.84zM516.5056 733.5424c-19.8144 0-35.84-16.0256-35.84-35.84V324.6592c0-19.8144 16.0256-35.84 35.84-35.84s35.84 16.0256 35.84 35.84v373.0944c0 19.7632-16.0256 35.7888-35.84 35.7888z" fill="#eeb173" p-id="48645" data-spm-anchor-id="a313x.7781069.0.i21" class="selected"></path></svg>