<?xml version="1.0" standalone="no"?><!DOCTYPE svg PUBLIC "-//W3C//DTD SVG 1.1//EN" "http://www.w3.org/Graphics/SVG/1.1/DTD/svg11.dtd"><svg t="1672372420327" class="icon" viewBox="0 0 1024 1024" version="1.1" xmlns="http://www.w3.org/2000/svg" p-id="1753" xmlns:xlink="http://www.w3.org/1999/xlink" width="128" height="128"><path d="M579.4304 575.1808m-281.4464 0a281.4464 281.4464 0 1 0 562.8928 0 281.4464 281.4464 0 1 0-562.8928 0Z" fill="#eeb173" p-id="1754" data-spm-anchor-id="a313x.7781069.0.i2" class=""></path><path d="M515.328 958.976c-247.1424 0-448.2048-201.0624-448.2048-448.2048s201.0624-448.2048 448.2048-448.2048 448.2048 201.0624 448.2048 448.2048c-0.0512 247.1936-201.1136 448.2048-448.2048 448.2048z m0-834.9184c-213.248 0-386.7648 173.5168-386.7648 386.7648 0 213.248 173.5168 386.7648 386.7648 386.7648s386.7648-173.5168 386.7648-386.7648c-0.0512-213.2992-173.5168-386.7648-386.7648-386.7648z" fill="#4F4F4F" p-id="1755"></path><path d="M458.4448 679.3216c-15.0528 0-29.5936-6.2464-39.936-17.2544L312.2176 549.376a30.73024 30.73024 0 0 1 1.28-43.4176 30.73024 30.73024 0 0 1 43.4176 1.28l101.4784 107.52 208.7936-229.1712a30.69952 30.69952 0 0 1 43.4176-1.9968 30.69952 30.69952 0 0 1 1.9968 43.4176l-213.5552 234.3936c-10.24 11.264-24.8832 17.7664-40.0896 17.92h-0.512z" fill="#4F4F4F" p-id="1756"></path></svg>