<svg width="18" height="18" viewBox="0 0 18 18" fill="none" xmlns="http://www.w3.org/2000/svg">
<g id="Group 111">
<path id="icon_home" d="M17.466 7.9563L10.2409 0.540527C9.90099 0.193359 9.45776 0 8.99517 0C8.53257 0 8.08935 0.191162 7.7494 0.53833L0.52005 7.96069C0.0101231 8.48364 -0.138337 9.22412 0.134915 9.89648C0.408167 10.571 1.05364 11.0083 1.76582 11.0061H1.89492V16.1895C1.89707 17.1892 2.68885 17.9978 3.66783 18H7.09316C7.44172 18 7.72358 17.7122 7.72358 17.3562V13.4692C7.72358 13.1814 7.95164 12.9485 8.2335 12.9485H9.75468C10.0365 12.9485 10.2646 13.1814 10.2646 13.4692V17.3562C10.2646 17.7122 10.5465 18 10.895 18H14.3204C15.2993 17.9978 16.0911 17.1892 16.0933 16.1895V11.0061H16.2224C16.9561 11.0061 17.6037 10.5623 17.8705 9.87671C18.1394 9.19775 17.9824 8.46167 17.466 7.9563ZM9.75683 11.6587H8.23565C7.25668 11.6609 6.4649 12.4695 6.46274 13.4692V16.7102H3.66783C3.38597 16.7102 3.1579 16.4773 3.1579 16.1895V10.3601C3.1579 10.0042 2.87604 9.71411 2.52748 9.71411H1.76582C1.56357 9.71851 1.37853 9.59326 1.30108 9.4021C1.25589 9.29224 1.21286 9.0769 1.41511 8.87256L8.64231 1.4502C8.74558 1.34473 8.86822 1.28979 8.99517 1.28979C9.12211 1.28979 9.24475 1.34473 9.34588 1.4502L16.5752 8.87256L16.5881 8.88574C16.728 9.01538 16.7732 9.21973 16.6979 9.39771C16.6613 9.49439 16.5386 9.71631 16.2224 9.71631H15.4607C15.1121 9.71631 14.8303 10.0042 14.8303 10.3601V16.1895C14.8303 16.4773 14.6022 16.7102 14.3204 16.7102H11.5297V13.4692C11.5276 12.4695 10.7358 11.6609 9.75683 11.6587Z" fill="white"/>
</g>
</svg>
