<svg xmlns="http://www.w3.org/2000/svg" width="68" height="69" viewBox="0 0 68 69">
  <defs>
   
  </defs>
  <path id="形状_2" data-name="形状 2" class="cls-1" d="M6,1L68,2l2,4V68l-4,2H4L2,66V4ZM17,17L10,55l8,1,1-1c0.178-7.323,2.113-9.886,5-14h2c1.56,8.255,3.1,15.281,14,15,2.032-1.734,4.57-1.17,10-1,1.1-2.1,1.3-1.9,2-5-2.052-1.131-4.43-2.332-6-4h3l3,1V44H47c-4.374,1.025-3.935.665-5,5l6,2v1c-5.41-.1-4.736-0.506-8,1L32,32c4.346-2.976,9.881-7.863,12-13V18l-8-1L23,31V27l2-9ZM59,43l-3,2-1,5,4,1v1l-6,1,1,1,6,1,2-1V49l-3-2,4-1V44Z" transform="translate(-2 -1)"/>
</svg>
