<?xml version="1.0" standalone="no"?><!DOCTYPE svg PUBLIC "-//W3C//DTD SVG 1.1//EN" "http://www.w3.org/Graphics/SVG/1.1/DTD/svg11.dtd"><svg t="1718536952455" class="icon" viewBox="0 0 1024 1024" version="1.1" xmlns="http://www.w3.org/2000/svg" p-id="51717" xmlns:xlink="http://www.w3.org/1999/xlink" width="200" height="200"><path d="M0.795554 511.931867c0 282.217205 229.126513 511.343718 511.342716 511.343718 282.217205 0 511.342716-229.127515 511.342716-511.343718S794.355476 0.589151 512.13827 0.589151C229.922067 0.589151 0.795554 229.017299 0.795554 511.931867z" fill="#3478F5" p-id="51718"></path><path d="M713.323209 403.656391H593.869902l11.875194-27.243209c23.052023-50.297237 22.353659-92.210098 3.492822-123.645495-20.258568-33.530489-56.583515-38.420039-76.142716-37.721675-7.68501 0.698364-13.971288 4.88955-18.162474 11.176829L410.848438 403.656391h-95.004555c-15.368016 0-27.243209 12.57456-27.24321 27.24321v292.694669c0 15.369018 12.57456 27.243209 27.24321 27.243209h101.989197v-0.697362H678.39499c38.420039 0 73.348258-27.243209 77.539444-65.66425l38.421042-204.676759c0-41.215499-34.928219-76.142716-81.033269-76.142717z" fill="#FFFFFF" p-id="51719"></path><path d="M361.250568 704.733432c-16.06638 0-29.339303-13.271922-29.339304-29.339303V480.498474c0-16.067382 13.272924-29.339303 29.339304-29.339304s29.339303 13.271922 29.339303 29.339304v194.896657c0 16.067382-13.272924 29.339303-29.339303 29.339303z" fill="#FCC038" p-id="51720"></path></svg>