<?xml version="1.0" standalone="no"?><!DOCTYPE svg PUBLIC "-//W3C//DTD SVG 1.1//EN" "http://www.w3.org/Graphics/SVG/1.1/DTD/svg11.dtd"><svg t="1677775156968" class="icon" viewBox="0 0 1024 1024" version="1.1" xmlns="http://www.w3.org/2000/svg" p-id="1429" xmlns:xlink="http://www.w3.org/1999/xlink" width="200" height="200"><path d="M928.880539 415.76033c-4.841269-14.704022-18.282752-25.022437-35.986969-27.56697L655.732843 354.080233 549.658066 141.430988c-7.909044-15.885669-21.976165-25.384918-37.634515-25.384918s-29.737759 9.499249-37.634515 25.362391L368.313235 354.080233l-237.171991 34.112103c-17.726743 2.544533-31.180514 12.862948-36.009496 27.589497-4.841269 14.726549-0.057342 30.908142 12.737001 43.247848l171.640791 165.550295-40.52105 233.762214c-2.41961 13.954486 0.670692 26.817434 8.693395 36.226574 7.260879 8.544921 18.055434 13.408717 29.6241 13.408717 7.499461 0 15.090054-1.954734 22.578252-5.864202l212.139314-110.359013 212.128051 110.359013c19.009762 9.908832 40.225127 6.500079 52.191088-7.544515 8.044206-9.408117 11.113005-22.272089 8.703634-36.226574l-40.498523-233.762214 171.629528-165.550295C928.971671 446.644921 933.721808 430.48688 928.880539 415.76033z" fill="#889297" p-id="1430"></path></svg>