<svg data-v-ecb495fd="" xmlns="http://www.w3.org/2000/svg" viewBox="0 0 119.51 23.74" style="fill: currentcolor; overflow: hidden;"><g class="icon-color-1" data-v-ecb495fd=""><polygon points="7.51 18.7 9.32 5.66 2.44 5.66 2.01 8.79 3.26 8.79 1.68 20.06 0 23.18 5.63 23.18 6.16 22.23 9.39 23.18 26.9 23.18 27.33 20.06 12.02 20.06 7.51 18.7" data-v-ecb495fd=""></polygon><polygon points="27.33 6.59 27.73 3.79 23.35 3.79 23.87 .03 17.62 .03 18.7 1.28 18.34 3.79 15.94 3.79 16.93 .66 11.3 .66 12.22 1.75 10.24 8.17 14.62 8.17 15.08 6.59 17.95 6.59 17.52 9.75 10.01 9.75 9.62 12.55 12.09 12.55 9.35 18.8 14.36 18.8 17.09 12.55 19 12.55 18.11 18.8 26.87 18.8 27.6 13.8 26.15 15.05 23.64 15.05 24.01 12.55 27.13 12.55 27.53 9.75 22.52 9.75 22.95 6.59 27.33 6.59" data-v-ecb495fd=""></polygon><polygon points="9.52 4.41 8.17 .66 3.16 .66 4.51 4.41 9.52 4.41" data-v-ecb495fd=""></polygon><polygon points="56.71 15.77 57.13 12.88 51.73 12.88 51.93 11.59 46.66 11.59 46.47 12.88 41.06 12.88 40.64 15.77 46.07 15.77 45.87 17.29 39.39 17.29 38.96 20.22 45.44 20.22 44.98 23.64 50.25 23.64 50.71 20.22 56.54 20.22 56.97 17.29 51.14 17.29 51.34 15.77 56.71 15.77" data-v-ecb495fd=""></polygon><polygon points="58.85 1.12 58.91 .69 42.35 .69 41.92 3.59 54.24 3.59 49.82 5.83 47.35 4.28 41.82 4.28 46.6 7.48 40.97 10.31 40.77 11.59 45.51 11.59 49.66 9.52 52.26 11.23 58.62 11.23 53.08 7.84 58.25 5.24 58.85 1.12" data-v-ecb495fd=""></polygon><path d="m40.11,10.64l-1.61.43.59-4.18h1.55l.46-3.13h-1.58l.53-3.75h-6.06l.79.96-.4,2.8h-2.14l-.46,3.13h2.14l-.79,5.6-2.21.56-.49,3.42,2.24-.56-.69,4.84-2.57,2.96h5.07c.64,0,1.19-.2,1.66-.61.47-.41.76-.93.87-1.56l.99-7.01,1.65-.43.46-3.46Z" data-v-ecb495fd=""></path></g><g class="icon-color-2" data-v-ecb495fd=""><polygon points="77.42 .03 82.36 9.42 88.62 9.42 83.68 .03 77.42 .03" data-v-ecb495fd=""></polygon><polygon points="67.34 9.42 74.92 .03 67.41 .03 68.03 .79 61.09 9.42 67.34 9.42" data-v-ecb495fd=""></polygon><path d="m63,13.5h3.1l-5.8,10.24h6.26l5.8-10.24h6.92l-.99,7.18-2.96,3.06h6.52c.64,0,1.2-.21,1.7-.63.49-.42.78-.93.87-1.55l1.58-11.23h-22.52l-.46,3.16Z" data-v-ecb495fd=""></path><polygon points="118.85 .66 113.22 .66 110.85 4.41 116.48 4.41 118.85 .66" data-v-ecb495fd=""></polygon><polygon points="102.05 4.41 100.74 .66 95.1 .66 96.42 4.41 102.05 4.41" data-v-ecb495fd=""></polygon><polygon points="109 13.17 101.49 13.17 100.11 14.42 91.91 14.42 91.48 17.55 96.72 17.55 89.97 23.74 97.48 23.74 104.13 17.65 109.99 23.74 117.5 23.74 111.47 17.55 117.76 17.55 118.19 14.42 107.62 14.42 109 13.17" data-v-ecb495fd=""></polygon><polygon points="119.51 5.04 109.49 5.04 110.22 .03 102.71 .03 103.76 1.28 103.24 5.04 93.23 5.04 92.8 8.17 97.11 8.17 92.11 13.17 98.36 13.17 102.71 8.83 102.28 11.92 108.54 11.92 108.97 8.89 112.13 13.17 118.39 13.17 114.7 8.17 119.08 8.17 119.51 5.04" data-v-ecb495fd=""></polygon></g></svg>