<svg data-v-f249bb49="" t="1711297321932" class="icon" viewBox="0 0 1024 1024" version="1.1" xmlns="http://www.w3.org/2000/svg" p-id="42605" width="32" height="32"><path data-v-f249bb49="" d="M512 0c426.6752 0 512 85.3248 512 512s-85.3248 512-512 512S0 938.6752 0 512 85.3248 0 512 0z" fill="#E2F7F6" p-id="42606"></path><path data-v-f249bb49="" d="M302.4896 388.5824L512 426.6752l209.5104-38.0928a21.3248 21.3248 0 0 1 25.1648 20.992v337.1008c0 23.552-19.1232 42.6496-42.6752 42.6496h-384c-23.552 0-42.6752-19.0976-42.6752-42.6496V409.5744a21.3248 21.3248 0 0 1 25.1648-20.992z" fill="#1EC0BB" p-id="42607"></path><path data-v-f249bb49="" d="M452.48 487.0144l60.3136 60.3136 60.3648-60.3136 30.1568 30.1568-90.496 90.5216-90.5216-90.5216z" fill="#FFFFFF" p-id="42608"></path><path data-v-f249bb49="" d="M598.0928 565.2992v42.6752h-170.6752v-42.6752zM598.0928 629.2992v42.6752h-170.6752v-42.6752z" fill="#FFFFFF" p-id="42609"></path><path data-v-f249bb49="" d="M534.0928 586.624v128h-42.6752v-128z" fill="#FFFFFF" p-id="42610"></path><path data-v-f249bb49="" d="M320 234.6752h384c23.552 0 42.6752 19.0976 42.6752 42.6496v46.208a21.3248 21.3248 0 0 1-17.536 20.992L512 384l-217.1392-39.4752a21.3248 21.3248 0 0 1-17.536-20.992v-46.208c0-23.552 19.1232-42.6496 42.6752-42.6496z" fill="#74E9E6" p-id="42611"></path></svg>