<svg data-v-6334c246="" t="1706321502538" class="icon" viewBox="0 0 1024 1024" version="1.1" xmlns="http://www.w3.org/2000/svg" p-id="965" width="32" height="32"><path data-v-6334c246="" d="M68.1472 69.4784m312.832 0l259.328 0q312.832 0 312.832 312.832l0 259.328q0 312.832-312.832 312.832l-259.328 0q-312.832 0-312.832-312.832l0-259.328q0-312.832 312.832-312.832Z" fill="#231f18" p-id="966"></path><path data-v-6334c246="" d="M693.0432 283.392H449.4336A14.8992 14.8992 0 0 0 435.2 294.8096a47.5648 47.5648 0 0 1-92.16 0 14.848 14.848 0 0 0-14.4384-11.4176A95.6416 95.6416 0 0 0 232.6016 378.88v266.24a95.6416 95.6416 0 0 0 95.6416 95.6928 14.848 14.848 0 0 0 14.4384-11.4176 47.5648 47.5648 0 0 1 92.16 0 14.8992 14.8992 0 0 0 14.4384 11.4176h243.6096A95.6928 95.6928 0 0 0 788.736 645.12V378.88a95.6928 95.6928 0 0 0-95.6928-95.488z m-271.616 343.5008a25.6 25.6 0 0 1-50.7904 0V599.04a25.6 25.6 0 0 1 50.7904 0z m0-102.7584a25.6 25.6 0 1 1-50.7904 0v-28.0576a25.6 25.6 0 0 1 50.7904 0z m0-102.7584a25.6 25.6 0 0 1-50.7904 0v-28.0576a25.6 25.6 0 0 1 50.7904 0z m243.2512 117.76a23.7056 23.7056 0 0 1 0 47.4112h-50.0224v27.4944a23.7056 23.7056 0 0 1-47.4112 0v-27.4944H517.12a23.7056 23.7056 0 0 1 0-47.4112h49.9712v-25.6H517.12a23.7056 23.7056 0 1 1 0-47.616h28.16L501.76 428.032a23.7056 23.7056 0 0 1 31.0784-35.84l58.1632 50.5856 58.1632-50.5856a23.7056 23.7056 0 1 1 31.0784 35.84l-43.7248 37.888h28.16a23.7056 23.7056 0 0 1 0 47.36h-50.0224v25.6z" fill="#f6cb86" p-id="967"></path></svg>