<svg data-v-6334c246="" t="1706321642029" class="icon" viewBox="0 0 1024 1024" version="1.1" xmlns="http://www.w3.org/2000/svg" p-id="1398" width="32" height="32"><path data-v-6334c246="" d="M75.7248 71.9872m312.832 0l259.328 0q312.832 0 312.832 312.832l0 259.328q0 312.832-312.832 312.832l-259.328 0q-312.832 0-312.832-312.832l0-259.328q0-312.832 312.832-312.832Z" fill="#231f18" p-id="1399"></path><path data-v-6334c246="" d="M697.6512 306.6368a430.9504 430.9504 0 0 1-136.0384-58.2656 79.3088 79.3088 0 0 0-87.04 0 430.592 430.592 0 0 1-135.7824 58.2656A79.616 79.616 0 0 0 276.9408 384v214.3232c0 62.7712 83.2 145.5104 215.8592 191.1296a78.4384 78.4384 0 0 0 50.7904 0c132.7104-45.6192 215.8592-128.3584 215.8592-191.1296V384a79.5648 79.5648 0 0 0-61.7984-77.3632zM650.5984 450.56l-119.552 157.184a28.6208 28.6208 0 0 1-19.456 11.0592 24.2176 24.2176 0 0 1-3.328 0 28.5184 28.5184 0 0 1-18.1248-6.4512l-99.6352-81.5616A28.6208 28.6208 0 1 1 426.752 486.4l76.8 62.7712 101.5808-133.5808a28.6208 28.6208 0 0 1 45.568 34.6624z" fill="#f6cb86" p-id="1400"></path></svg>