<svg data-v-6334c246="" t="1706321560850" class="icon" viewBox="0 0 1024 1024" version="1.1" xmlns="http://www.w3.org/2000/svg" p-id="1109" width="32" height="32"><path data-v-6334c246="" d="M69.4784 77.056m312.832 0l259.328 0q312.832 0 312.832 312.832l0 259.328q0 312.832-312.832 312.832l-259.328 0q-312.832 0-312.832-312.832l0-259.328q0-312.832 312.832-312.832Z" fill="#231f18" p-id="1110"></path><path data-v-6334c246="" d="M291.1232 409.6a275.5584 275.5584 0 0 1 165.5296-104.8064L440.32 266.9568a47.6672 47.6672 0 0 0-43.7248-28.7232H293.7856a47.7184 47.7184 0 0 0-44.3904 65.1776zM733.9008 412.2112l42.8544-108.8A47.7184 47.7184 0 0 0 732.16 238.2336h-102.4a47.6672 47.6672 0 0 0-43.7248 28.7232l-16.6912 38.4512a275.6096 275.6096 0 0 1 164.5568 106.8032zM513.1264 342.272A229.3248 229.3248 0 1 0 742.4 571.5456a229.2736 229.2736 0 0 0-229.2736-229.2736z m129.2288 223.1296l-32.4608 31.6416 7.68 44.6976a44.2368 44.2368 0 0 1-64.3072 46.6944l-40.1408-21.0944-40.0896 21.0944a44.288 44.288 0 0 1-64.3072-46.6944l7.6288-44.6976-32.3584-31.6416a44.288 44.288 0 0 1 24.576-75.5712l44.8512-6.5024 20.0704-40.6528a44.032 44.032 0 0 1 39.7312-24.7296 44.032 44.032 0 0 1 39.7312 24.7296l20.0704 40.6528 44.8512 6.5024a44.288 44.288 0 0 1 24.576 75.5712z" fill="#f6cb86" p-id="1111"></path><path data-v-6334c246="" d="M529.408 508.1088l-16.2816-32.9728L496.64 508.1088a44.2368 44.2368 0 0 1-33.1264 24.3712l-36.4032 5.12 26.3168 25.6a44.3392 44.3392 0 0 1 12.7488 39.2192l-6.1952 36.2496 32.512-17.152a44.544 44.544 0 0 1 41.2672 0l32.5632 17.152-6.2464-36.2496a44.3392 44.3392 0 0 1 12.7488-39.2192l26.368-25.6-36.4032-5.12a44.288 44.288 0 0 1-33.3824-24.3712z" fill="#f6cb86" p-id="1112"></path></svg>