<?xml version="1.0" encoding="UTF-8"?>
<svg width="19px" height="26px" viewBox="0 0 19 26" version="1.1" xmlns="http://www.w3.org/2000/svg" xmlns:xlink="http://www.w3.org/1999/xlink">
    <title>icon_quanyi</title>
    <defs>
        <polygon id="path-1" points="0 0 19 0 19 19 0 19"></polygon>
        <polygon id="path-3" points="0 0 11 0 11 7 0 7"></polygon>
    </defs>
    <g id="页面-1" stroke="none" stroke-width="1" fill="none" fill-rule="evenodd">
        <g id="开通团长" transform="translate(-40.000000, -1130.000000)">
            <g id="icon_quanyi" transform="translate(40.000000, 1130.000000)">
                <path d="M13.2800206,7 C13.0599768,6.82028408 12.8400619,6.82028408 12.620018,6.82028408 L9,1 L9.88007863,0 L19,0 C17.6683584,1.62963726 16.6696271,2.8518652 16.0038063,3.66668383 C15.3985206,4.40742076 14.490592,5.51852615 13.2800206,7 Z" id="Fill-1" fill="#FE5F4D"></path>
                <g id="编组" transform="translate(0.000000, 7.000000)">
                    <mask id="mask-2" fill="white">
                        <use xlink:href="#path-1"></use>
                    </mask>
                    <g id="Clip-4"></g>
                    <path d="M14.3652366,9.34245447 L12.9843403,10.7907477 L13.3792003,12.85775 C13.5775891,13.8925809 12.5894185,14.9273808 11.6013099,14.3060432 L9.82750237,13.2711813 L7.25989217,14.3060432 C6.47020326,14.7193199 5.28781957,13.8925809 5.48419789,12.85775 L5.87899595,10.7907477 L4.49800693,9.34245447 C3.90478913,8.51571541 4.29961812,7.2728236 5.28781957,7.06491731 L7.25989217,6.85933037 L8.24809362,4.99776041 C8.841497,3.96289858 10.222486,3.96289858 10.6151499,4.99776041 L11.6033513,6.86202081 L13.5775891,7.0674222 C14.7600965,7.2728236 15.1549255,8.51571541 14.3652366,9.34245447 M9.49815344,0 C4.31434108,0 -0.00372404313,4.31720207 -0.00372404313,9.49998454 C-0.00372404313,14.682767 4.31434108,19 9.49815344,19 C14.6819039,19 19,14.682767 19,9.49998454 C19,4.31720207 14.6819039,0 9.49815344,0" id="Fill-3" fill="#FE5F4D" mask="url(#mask-2)"></path>
                </g>
                <g id="编组">
                    <mask id="mask-4" fill="white">
                        <use xlink:href="#path-3"></use>
                    </mask>
                    <g id="Clip-6"></g>
                    <path d="M11,6.12493591 C10.203366,5.94990259 9.56514969,5.77500598 8.76838674,5.77500598 C7.17286208,5.77500598 5.57733743,6.12493591 4.14235817,7 L-0.00387178759,0 L7.33127977,0 L11,6.12493591 Z" id="Fill-5" fill="#FE5F4D" mask="url(#mask-4)"></path>
                </g>
            </g>
        </g>
    </g>
</svg>