<?xml version="1.0" encoding="UTF-8"?>
<svg width="40px" height="40px" viewBox="0 0 40 40" version="1.1" xmlns="http://www.w3.org/2000/svg" xmlns:xlink="http://www.w3.org/1999/xlink">
    <title>icon_kefu</title>
    <g id="页面-1" stroke="none" stroke-width="1" fill="none" fill-rule="evenodd">
        <g id="开通团长" transform="translate(-587.000000, -586.000000)" fill="#FE7100">
            <g id="权益" transform="translate(77.000000, 562.000000)">
                <g id="客服" transform="translate(482.000000, 0.000000)">
                    <g id="编组-7" transform="translate(28.000000, 24.000000)">
                        <path d="M32.4850397,15.4661856 C30.6402812,10.4884207 25.8598568,6.93248588 20.2362355,6.93248588 C14.6361263,6.93248588 9.87289349,10.4583019 8.01094338,15.4038326 C7.91831106,15.2909122 7.80965012,15.1943103 7.70301171,15.0964997 C8.75710887,9.0699149 13.964188,4.48777437 20.242556,4.48777437 C26.4908892,4.48777437 31.6817375,9.0248374 32.7704706,15.0095681 C32.662821,15.1535643 32.5636659,15.3038562 32.4850397,15.4661856 M35.0944194,13.834783 C35.0707051,13.834783 35.0491651,13.8391145 35.0266643,13.8391145 C33.4542408,7.05824959 27.4460841,2 20.242556,2 C12.84092,2 6.69487676,7.33757899 5.33264567,14.3990828 C4.00813494,14.6365077 3,15.7961327 3,17.1985215 L3,22.8113502 C3,24.3844795 4.26646383,25.6601475 5.83019045,25.6601475 C6.7122706,25.6601475 7.49084729,25.2452834 8.00876915,24.6080034 C9.26021563,27.9050071 11.8079078,30.5633708 15.0321396,31.965961 C15.0398758,31.9492395 15.1008554,31.8309804 15.1743241,31.7367457 C15.2250899,31.6714211 15.2819738,31.6179325 15.3307676,31.6179325 C15.3813311,31.6179325 15.4277484,31.6362153 15.4674407,31.6641181 C14.7212247,31.1107477 12.0257859,28.26603 11.4419293,24.2963391 C11.1857746,22.5490949 12.4996164,20.8339338 14.0297689,20.5501722 C16.4862446,20.094562 18.9298771,19.5755412 21.3863528,19.1285436 C22.9479052,18.8448324 24.0150477,17.9915833 24.6676707,16.5709117 C24.8205242,16.2387988 25.0413349,15.5673204 25.1426642,14.5989348 C25.1695134,14.4549386 25.2880342,14.3443854 25.439927,14.3443854 C25.5412562,14.3443854 25.6273658,14.3959097 25.684452,14.4700987 L25.7522071,14.4281943 C26.7203969,15.8283669 28.6404444,18.9286413 28.9161672,22.1976918 C29.2327958,25.9351958 29.0562281,28.4950439 26.184171,31.1138704 C26.1807833,31.1171945 26.1764854,31.1213245 26.1722886,31.124699 C26.132394,31.1675604 26.1087303,31.2234162 26.1087303,31.2848627 C26.1087303,31.365297 26.1517598,31.4341473 26.2142057,31.4760517 C26.2378695,31.485722 26.2615837,31.498666 26.285298,31.5083363 C26.3046638,31.5126677 26.3230184,31.5189635 26.3423842,31.5189635 C26.3619017,31.5189635 26.3790933,31.5126677 26.3962849,31.5083363 C26.4371908,31.4868804 26.4758718,31.4621003 26.5157664,31.4406445 C29.4202346,29.8468148 31.6483656,27.1851269 32.6780406,23.9837682 C33.0947849,24.6004989 33.7473573,25.0443738 34.5054052,25.1991986 C33.2895049,30.7075685 28.35739,34.1551158 22.2469434,34.6784178 C21.880712,33.7736444 20.9792661,33.1310255 19.9206182,33.1310255 C18.53801,33.1310255 17.4169162,34.2218003 17.4169162,35.5661172 C17.4169162,36.9104844 18.5378078,38 19.9206182,38 C21.0354421,38 21.9690465,37.2866674 22.2931585,36.3064459 C29.3662834,35.7337853 35.0363219,31.5459092 36.2200133,25.039035 C37.2656664,24.603672 38,23.5817978 38,22.3889816 L38,16.7096195 C38,15.1222871 36.6990013,13.834783 35.0944194,13.834783 M20.6648623,30.4014947 C20.84143,30.4014947 21.0211832,30.3906157 21.2020994,30.3692102 C22.937034,30.1618033 24.4103025,28.953827 24.9541129,27.2892333 C24.9951199,27.1646784 24.9358595,27.0312591 24.8161757,26.9765617 C24.6978571,26.9216628 24.5546613,26.9691075 24.4877152,27.0808191 C24.4813948,27.0914463 23.7920627,28.2005039 21.1084558,28.5615269 C20.7067794,28.6152169 20.3158225,28.6433715 19.9452932,28.6433715 C18.0651402,28.6421627 17.2273031,27.9362843 17.2196175,27.9297871 C17.1250132,27.8459782 16.9806038,27.8438125 16.8836231,27.9254556 C16.7856816,28.0070988 16.7631303,28.1489796 16.8299246,28.2575685 C17.6483959,29.5792711 19.1171137,30.4014947 20.6648623,30.4014947" id="Fill-1"></path>
                    </g>
                </g>
            </g>
        </g>
    </g>
</svg>