<?xml version="1.0" encoding="UTF-8"?>
<svg width="40px" height="40px" viewBox="0 0 40 40" version="1.1" xmlns="http://www.w3.org/2000/svg" xmlns:xlink="http://www.w3.org/1999/xlink">
    <title>icon_tixian</title>
    <g id="页面-1" stroke="none" stroke-width="1" fill="none" fill-rule="evenodd">
        <g id="开通团长" transform="translate(-355.000000, -586.000000)" fill="#FE7100">
            <g id="权益" transform="translate(77.000000, 562.000000)">
                <g id="提现" transform="translate(221.000000, 0.000000)">
                    <g id="编组-6" transform="translate(57.000000, 24.000000)">
                        <path d="M25.4285899,22.8977893 C25.4285899,22.4148943 25.6189958,22.0284851 25.9047195,21.6421226 C26.1904892,21.3522923 26.6666648,21.1592276 27.1427943,21.1592276 C27.6189699,21.1592276 27.9999195,21.3522923 28.3808692,21.6421226 C28.6666389,21.9319528 28.8570447,22.4148943 28.8570447,22.8977893 C28.8570447,23.3806842 28.6666389,23.7670934 28.3808692,24.153456 C28.0950995,24.5398186 27.6189699,24.6363509 27.1427943,24.6363509 C26.6666648,24.6363509 26.2857151,24.4432862 25.9047195,24.153456 C25.6189958,23.8636258 25.4285899,23.4772166 25.4285899,22.8977893 L25.4285899,22.8977893 Z M30.5714331,8.8921109 L13.3333352,8.8921109 C14.66659,8.2159181 16.0000287,7.44314631 17.2381036,6.76695351 L20.3809726,5.02839187 C21.4284577,4.44891795 22.190357,4.06255538 22.8570763,3.6761928 C23.7142016,3.19311134 24.5712808,3 25.2380001,3 C25.9047195,3 26.5714388,3.19311134 27.0476144,3.38636258 C27.6189699,3.6761928 28.0950995,4.06255538 28.4760491,4.54549694 L30.5714331,8.8921109 Z M35.7142303,33.4263444 C35.7142303,33.9092393 35.6190504,34.3921342 35.4284606,34.7785434 C35.2381007,35.164906 35.0475109,35.5512686 34.7617412,35.9376312 C34.4762014,36.2274614 34.0952058,36.5171051 33.7142562,36.7103563 C33.3333065,36.9034676 32.8571769,37 32.3808174,37 L7.52381869,37 C7.04764313,37 6.57151355,36.9034676 6.19056391,36.7103563 C5.71420443,36.5171051 5.33325478,36.3239937 5.047669,35.9376312 C4.76189929,35.6478009 4.47612958,35.2614384 4.28576971,34.7785434 C4.09517994,34.3921342 4,33.9092393 4,33.4263444 L4,14.2045614 C4,13.2387249 4.38094964,12.3694207 5.047669,11.6932279 C5.71420443,11.0170351 6.57151355,10.6306725 7.52381869,10.6306725 L32.4761813,10.6306725 C33.4284864,10.6306725 34.2856117,11.0170351 34.952331,11.6932279 C35.6190504,12.3694207 36,13.2387249 36,14.2045614 L36,19.4204328 L27.1427943,19.4204328 C26.1904892,19.4204328 25.333226,19.710263 24.6666906,20.3864558 C23.9999713,21.0625087 23.6190216,21.8352339 23.6190216,22.8977893 C23.6190216,23.5739821 23.8095654,24.153456 23.9999713,24.6363509 C24.1903311,25.119479 24.5712808,25.505795 25.0476403,25.7954853 C25.5237698,26.1818479 26.1904892,26.3750991 27.0476144,26.3750991 L35.7142303,26.3750991 L35.7142303,33.4263444 Z" id="Fill-1"></path>
                    </g>
                </g>
            </g>
        </g>
    </g>
</svg>