<?xml version="1.0" encoding="UTF-8"?>
<svg width="40px" height="40px" viewBox="0 0 40 40" version="1.1" xmlns="http://www.w3.org/2000/svg" xmlns:xlink="http://www.w3.org/1999/xlink">
    <title>icon_fan</title>
    <defs>
        <linearGradient x1="50%" y1="0%" x2="50%" y2="67.2747295%" id="linearGradient-1">
            <stop stop-color="#FBD3C9" offset="0%"></stop>
            <stop stop-color="#F5F7FA" offset="100%"></stop>
        </linearGradient>
    </defs>
    <g id="页面-1" stroke="none" stroke-width="1" fill="none" fill-rule="evenodd">
        <g id="开通团长" transform="translate(-123.000000, -586.000000)">
            <rect id="矩形" fill="url(#linearGradient-1)" x="0" y="0" width="750" height="1624"></rect>
            <rect id="矩形" fill="#FFFFFF" x="18" y="520" width="714" height="490" rx="10"></rect>
            <g id="返佣" transform="translate(77.000000, 562.000000)">
                <circle id="椭圆形" fill-opacity="0.2" fill="#F08E40" cx="66" cy="44" r="44"></circle>
                <g id="编组-5" transform="translate(46.000000, 24.000000)" fill="#FE7100">
                    <g id="编组" transform="translate(3.000000, 2.000000)">
                        <path d="M21.6525504,21 L17,21 L17,21.4818165 L19.4951353,21.4818165 C19.5425955,21.5232433 19.9159108,21.9482639 20.609438,22.7614952 C20.7044308,22.9220796 20.7693993,23 20.8168595,23 C20.8643921,23 21.1664447,22.5387389 21.7178806,21.8495984 C21.8523754,21.7083676 21.9475852,21.5415217 21.996203,21.3626589 C22.0196438,21.2304725 21.9326092,21.1025868 21.7887815,21.0570489 C21.7526076,21.0244134 21.7042792,21.0041743 21.6525504,21 Z" id="Fill-1"></path>
                        <path d="M22.5022691,28.7302326 L20.6815868,26.3892889 L19.0696789,28.7526562 L16.6821024,28.7526562 C18.486534,26.1390741 19.4033553,24.7818983 19.4327006,24.6810603 C17.8869371,22.6257443 17.0892428,21.556042 17.0508992,21.4664842 L17.0508992,24.4235306 C17.0981068,25.6388497 16.9664224,26.8545106 16.6603453,28.0300415 C16.572981,28.2578326 16.5032776,28.4917766 16.4512351,28.7302326 L14.1956115,28.7302326 C14.6259192,27.6009163 14.8315376,26.3959886 14.8007821,25.1852499 L14.8007821,16.5212559 L24.2132929,16.1965237 L24.6036453,16.1965237 L24.6036453,17.5742773 C24.4276409,17.5742773 21.9136179,17.6618524 17.061912,17.8372762 L17.061912,19.5175436 L23.1129461,19.5175436 C23.56857,19.4783023 24.017613,19.6465478 24.3397394,19.9766125 C24.4620225,20.0973446 24.5311887,20.2627187 24.5322631,20.4359549 L24.5322631,20.5032257 C24.4806235,20.8306242 24.3216756,21.1308136 24.0811384,21.3542978 L21.8257835,24.6363498 L24.8512334,28.707809 L22.5022691,28.7302326 Z M24.8678199,31.2223307 L14.7512242,31.2223307 C14.2546378,31.2135117 13.7761824,31.0295423 13.3981858,30.7015969 L12.8151082,30.3096621 C12.8151082,30.3990147 12.8151082,30.7072028 12.7489638,31.2279366 L10.3669609,31.2279366 C10.4954892,29.5255191 10.7960599,26.2658906 11.2692775,21.4496665 C11.2692775,21.2313097 11.1371231,21.080087 10.88423,20.9903241 C10.8296357,20.9417168 10.7583207,20.9177208 10.686267,20.9233267 L9.84996046,20.9233267 L9.84996046,19.5399672 L12.2979063,19.5399672 C12.8707097,19.490061 13.4034908,19.8433697 13.5907767,20.3967819 C13.6608159,20.491467 13.7045988,20.6036535 13.7171561,20.7217193 L12.9471283,28.7302326 C13.6731718,29.2565724 14.1022708,29.5591545 14.2342237,29.6487122 C14.548762,29.8264604 14.9033898,29.9172488 15.2629868,29.9119163 L24.8678199,29.9119163 L24.8678199,31.2223307 Z M13.0514148,16.1965237 L13.1781299,16.7172575 L13.7006368,18.7560293 L11.3351532,18.7560293 L10.686267,16.1965237 L13.0514148,16.1965237 Z M33.4054791,22.2113859 C32.2547015,17.4898469 29.2549707,13.4542108 25.1043951,11.044082 C24.6091518,10.7471058 24.0921513,10.4841068 23.5806573,10.2375837 L23.5806573,10.2039483 L23.8389896,9.95742523 C24.7539307,9.12665751 25.4674168,8.09154772 25.9241151,6.93338149 C26.0922628,6.4959842 26.2354973,6.04894749 26.3530126,5.59493757 C26.6116136,3.9146702 26.3146691,2.91777628 25.3409703,2.07764259 C24.1333153,0.979227103 22.3905288,0.739677226 20.9399191,1.47302527 C20.8355655,1.52320495 20.7584082,1.55690874 20.6540546,1.47302527 C18.598543,-0.473796038 15.4213975,-0.493006516 13.3431215,1.42817803 C13.2720751,1.51630011 13.1492547,1.53981757 13.0514148,1.48396362 C12.2498257,1.10317229 11.3477106,0.998984499 10.482596,1.18726086 C8.69495229,1.47781079 7.44774492,3.14741328 7.64940129,4.97883498 C7.8385003,6.65752997 8.53862328,8.23395137 9.65186313,9.48721289 C9.8885055,9.75021185 10.135825,10.0023408 10.3834802,10.2656133 L10.1964629,10.3607085 C4.34063865,13.161815 0.451350092,18.9914773 0.0526708192,25.5659729 C-0.0908993822,27.4006078 0.0595202862,29.2467279 0.498020481,31.031935 C1.17920669,33.913917 3.6929611,35.9589783 6.6043875,35.9995869 L27.4533594,35.9995869 C29.5623909,36.0244033 31.5320827,34.9295428 32.6519034,33.1098798 C33.2486129,32.1613197 33.6250649,31.0866952 33.7519815,29.9680437 C34.1742982,27.3864563 34.0563128,24.7432039 33.4054791,22.2113859 L33.4054791,22.2113859 Z" id="Fill-3"></path>
                    </g>
                </g>
            </g>
        </g>
    </g>
</svg>