<?xml version="1.0" standalone="no"?><!DOCTYPE svg PUBLIC "-//W3C//DTD SVG 1.1//EN" "http://www.w3.org/Graphics/SVG/1.1/DTD/svg11.dtd"><svg t="1678089704355" class="icon" viewBox="0 0 1024 1024" version="1.1" xmlns="http://www.w3.org/2000/svg" p-id="1841" xmlns:xlink="http://www.w3.org/1999/xlink" width="200" height="200"><path d="M520.533333 768C336.213333 768 187.733333 626.346667 187.733333 452.266667S336.213333 136.533333 520.533333 136.533333 853.333333 278.186667 853.333333 452.266667 704.853333 768 520.533333 768z" fill="#FFD6C2" p-id="1842"></path><path d="M469.333333 768C295.253333 768 153.6 626.346667 153.6 452.266667S295.253333 136.533333 469.333333 136.533333 785.066667 278.186667 785.066667 452.266667 643.413333 768 469.333333 768z" fill="#FB560A" p-id="1843"></path><path d="M360.106667 491.52h85.333333v-40.96h-85.333333c-23.893333 0-35.84-13.653333-35.84-30.72 0-15.36 11.946667-23.893333 35.84-23.893333h61.44s-46.08-61.44-61.44-85.333334c-15.36-30.72 52.906667-44.373333 69.973333-20.48 17.066667 27.306667 52.906667 83.626667 52.906667 83.626667s25.6-59.733333 42.666666-90.453333c15.36-29.013333 78.506667-1.706667 64.853334 37.546666-17.066667 25.6-51.2 75.093333-51.2 75.093334H597.333333c23.893333 0 34.133333 11.946667 34.133334 27.306666 0 15.36-11.946667 25.6-34.133334 25.6h-80.213333v40.96H597.333333c23.893333 0 34.133333 11.946667 34.133334 25.6s-11.946667 23.893333-34.133334 23.893334h-80.213333v6.826666c0 34.133333-15.36 51.2-37.546667 51.2h-25.6c-11.946667 0-8.533333-29.013333-8.533333-51.2v-5.12h-85.333333c-23.893333 0-35.84-11.946667-35.84-27.306666 0-15.36 11.946667-22.186667 35.84-22.186667z" fill="#FFD6C2" p-id="1844"></path><path d="M343.04 489.813333h85.333333v-40.96h-85.333333c-23.893333 0-35.84-13.653333-35.84-30.72 0-15.36 11.946667-23.893333 35.84-23.893333h61.44L358.4 320.853333c-15.36-30.72 34.133333-56.32 51.2-30.72 17.066667 29.013333 51.2 85.333333 51.2 85.333334s39.253333-61.44 58.026667-92.16c15.36-29.013333 68.266667 5.12 51.2 35.84l-51.2 76.8H580.266667c23.893333 0 34.133333 8.533333 34.133333 23.893333 0 15.36-11.946667 30.72-34.133333 30.72h-81.92v40.96H580.266667c23.893333 0 34.133333 8.533333 34.133333 23.893333 0 15.36-11.946667 27.306667-34.133333 27.306667h-81.92v3.413333c0 34.133333-11.946667 51.2-37.546667 51.2-23.893333 0-34.133333-17.066667-34.133333-51.2v-5.12h-85.333334c-23.893333 0-35.84-11.946667-35.84-27.306666 1.706667-15.36 13.653333-23.893333 37.546667-23.893334z" fill="#FFFFFF" p-id="1845"></path><path d="M756.053333 585.386667c-35.84-18.773333-69.973333-32.426667-98.986666-35.84-35.84-5.12-75.093333 13.653333-78.506667 49.493333-6.826667 64.853333 29.013333 100.693333 29.013333 100.693333s-141.653333 3.413333-285.013333-97.28c-93.866667-64.853333-134.826667-121.173333-167.253333-143.36 0 59.733333 17.066667 124.586667 56.32 187.733334 63.146667 102.4 146.773333 206.506667 230.4 225.28 63.146667 11.946667 271.36-187.733333 314.026666-286.72z" fill="#D14301" p-id="1846"></path><path d="M989.866667 725.333333s-87.04-22.186667-165.546667-66.56c-61.44-35.84-121.173333-69.973333-167.253333-75.093333-35.84-5.12-75.093333 13.653333-78.506667 49.493333-6.826667 64.853333 29.013333 100.693333 29.013333 100.693334s-141.653333 3.413333-285.013333-97.28S157.013333 457.386667 102.4 484.693333c-8.533333 3.413333-27.306667 30.72-27.306667 44.373334 6.826667 87.04 201.386667 339.626667 365.226667 375.466666 157.013333 34.133333 409.6 25.6 496.64 15.36 18.773333-1.706667 51.2-15.36 51.2-15.36V725.333333z" fill="#FFFFFF" p-id="1847"></path><path d="M940.373333 749.226667s-88.746667-25.6-165.546666-71.68c-76.8-46.08-162.133333-83.626667-153.6-20.48 8.533333 64.853333 88.746667 128 88.746666 128s-262.826667 0-407.893333-117.76S136.533333 489.813333 81.92 517.12c-54.613333 27.306667 133.12 361.813333 324.266667 404.48S938.666667 921.6 938.666667 921.6V749.226667z" fill="#3889FF" p-id="1848"></path></svg>