<?xml version="1.0" encoding="UTF-8"?>
<svg width="30px" height="26px" viewBox="0 0 30 26" version="1.1" xmlns="http://www.w3.org/2000/svg" xmlns:xlink="http://www.w3.org/1999/xlink">
    <title>icon_qiehuan</title>
    <g id="页面-1" stroke="none" stroke-width="1" fill="none" fill-rule="evenodd">
        <g id="充值-充值方式切换" transform="translate(-466.000000, -235.000000)" fill="#FD4D20">
            <g id="编组" transform="translate(18.000000, 196.000000)">
                <g id="编组-4" transform="translate(448.000000, 39.000000)">
                    <path d="M1.44857775,9.60974294 L28.5514222,9.60974294 C29.3517162,9.60974294 30,8.95559627 30,8.14796266 C30,7.84108016 29.905933,7.55589597 29.7465894,7.32214817 C29.6958439,7.20155129 29.6233245,7.08447183 29.5365004,6.97492967 L24.3144229,0.535741859 C23.8074659,-0.0891692098 22.8948619,-0.180530477 22.2754139,0.33104694 C21.6561469,0.842807079 21.5656108,1.76377434 22.0728393,2.38863972 L25.5601997,6.68618238 L1.44857775,6.68618238 C0.648238545,6.68618238 0,7.34037474 0,8.14796266 C0,8.95559627 0.648238545,9.60974294 1.44857775,9.60974294 M28.5514222,16.3924034 L1.44857775,16.3924034 C0.648238545,16.3924034 0,17.0465958 0,17.8541837 C0,18.1611576 0.0940670178,18.4462504 0.253591643,18.6801809 C0.322353818,18.8445855 0.427375705,18.9980268 0.557702435,19.1332415 L6.94226361,25.5724293 C7.22487208,25.8574307 7.59425941,26 7.96717764,26 C8.34009588,26 8.7094832,25.8574307 8.99209167,25.5724293 C9.55703699,25.002335 9.55703699,24.0776676 8.99209167,23.5040102 L4.83467352,19.315964 L28.5478913,19.315964 C29.3481853,19.315964 29.9964691,18.661863 29.9964691,17.8541837 C29.9964691,17.0465958 29.3517162,16.3924034 28.5514222,16.3924034" id="icon_qiehuan"></path>
                </g>
            </g>
        </g>
    </g>
</svg>