<?xml version="1.0" encoding="UTF-8"?>
<svg width="30px" height="30px" viewBox="0 0 30 30" version="1.1" xmlns="http://www.w3.org/2000/svg" xmlns:xlink="http://www.w3.org/1999/xlink">
    <title>icon_jisu</title>
    <g id="页面-1" stroke="none" stroke-width="1" fill="none" fill-rule="evenodd">
        <g id="下单" transform="translate(-390.000000, -1093.000000)" fill="#26C87F" stroke="#26C87F" stroke-width="0.5">
            <g id="编组-4" transform="translate(390.000000, 1091.000000)">
                <g id="编组-13" transform="translate(0.000000, 2.000000)">
                    <g id="编组" transform="translate(5.000000, 3.000000)">
                        <path d="M9.99995069,2.01479722 L18.2041934,5.70558905 L18.2041934,10.4039209 C18.2041934,13.7871064 17.0374221,16.657684 14.7383994,18.932106 C13.3600971,20.2943081 11.8311872,21.1746627 10.7539992,21.6837494 L10.3482813,21.8686238 L9.99995069,22.0147972 L9.65172108,21.8686238 L9.24586855,21.6837494 C8.16871418,21.1746627 6.64094934,20.2932033 5.26268076,18.9308632 C3.05795619,16.7496896 1.89462005,14.0240427 1.80264567,10.823453 L1.79567434,10.4039209 L1.80028821,5.68670458 L9.99995069,2.01479722 Z M20,4.49834681 L10.001138,0 L0.00583425723,4.47581457 L0,10.3911196 C0,14.2770275 1.36396115,17.6311675 4.02217764,20.2613201 C5.65353094,21.875505 7.53623218,23.0053162 9.36313485,23.7424822 L9.99995082,24 L10.6367329,23.7435601 C12.462584,23.0053162 14.347524,21.875505 15.9776901,20.2636498 C18.6372294,17.6334625 20,14.2793225 20,10.3923366 L20,4.49834681 Z" id="Fill-1"></path>
                        <path d="M9.08807848,17 C8.74342408,16.9982115 8.43007792,16.8131593 8.28174994,16.5237105 C8.1301442,16.2320875 8.1648809,15.88632 8.3717941,15.6259073 L10.7353592,12.6717342 L8.48497095,11.5586504 C8.25511344,11.443979 8.0886636,11.2437074 8.0271397,11.0079122 C7.96459857,10.7714858 8.01124069,10.5214882 8.15576346,10.3184813 L10.9656688,6.3757147 C11.1456441,6.12185963 11.4542809,5.98067707 11.7758403,6.00213851 C12.098869,6.02521305 12.3836572,6.20802096 12.5216998,6.48109313 C12.6617769,6.7562343 12.6373632,7.08313538 12.4573879,7.33569295 L10.2133291,10.4836852 L12.5152196,11.6207904 C12.7527629,11.73974 12.9221514,11.9498306 12.9782124,12.1953045 C13.0361948,12.4411992 12.9771952,12.6983156 12.8161706,12.9003756 L9.80568149,16.6624734 C9.6374609,16.874668 9.37124665,16.9998597 9.08807848,17" id="Fill-3"></path>
                    </g>
                </g>
            </g>
        </g>
    </g>
</svg>